<?xml version="1.0" encoding="UTF-8"?>
<svg version="1.1" xmlns="http://www.w3.org/2000/svg" width="494" height="488">
<path d="M0 0 C0.90045044 -0.00705963 1.80090088 -0.01411926 2.7286377 -0.02139282 C40.51335421 -0.25041822 40.51335421 -0.25041822 57.20703125 3.203125 C58.18478516 3.40180176 59.16253906 3.60047852 60.16992188 3.80517578 C92.52830237 10.57609082 123.88149815 22.33903598 151.20703125 41.203125 C151.79403809 41.59918945 152.38104492 41.99525391 152.98583984 42.40332031 C162.29061266 48.69422736 170.8394086 55.72176322 179.20703125 63.203125 C179.78936523 63.72229492 180.37169922 64.24146484 180.97167969 64.77636719 C187.46195899 70.58914927 193.64178914 76.48352044 199.20703125 83.203125 C200.02429688 84.13253906 200.8415625 85.06195313 201.68359375 86.01953125 C208.9186853 94.27950772 215.22243577 103.00292597 221.20703125 112.203125 C221.78251709 113.07928467 221.78251709 113.07928467 222.36962891 113.97314453 C238.462023 138.72575954 249.09845985 166.43054364 255.20703125 195.203125 C255.42020996 196.19119141 255.63338867 197.17925781 255.85302734 198.19726562 C262.1401013 228.73020846 261.7079111 262.76034735 255.20703125 293.203125 C255.00335938 294.20037598 254.7996875 295.19762695 254.58984375 296.22509766 C244.55554311 344.25192396 217.5198953 393.72933788 179.3359375 425.43359375 C177.7490718 426.75258487 176.19988543 428.11716026 174.671875 429.50390625 C134.59657523 465.14399498 78.17955881 487.95967078 24.3359375 488.44140625 C23.42413727 488.4512001 22.51233704 488.46099396 21.57290649 488.47108459 C1.44495443 488.64276136 -18.03188993 488.47948494 -37.79296875 484.203125 C-39.31857422 483.88166504 -39.31857422 483.88166504 -40.875 483.55371094 C-70.13710035 477.23199303 -98.80502829 465.81912957 -123.79296875 449.203125 C-124.80447998 448.53095947 -124.80447998 448.53095947 -125.83642578 447.84521484 C-136.09048408 440.95711703 -145.61862964 433.46561297 -154.79296875 425.203125 C-155.37095215 424.68685547 -155.94893555 424.17058594 -156.54443359 423.63867188 C-163.03959392 417.82275578 -169.22397736 411.92725652 -174.79296875 405.203125 C-175.61023438 404.27371094 -176.4275 403.34429687 -177.26953125 402.38671875 C-184.5046228 394.12674228 -190.80837327 385.40332403 -196.79296875 376.203125 C-197.17662598 375.61901855 -197.5602832 375.03491211 -197.95556641 374.43310547 C-214.0479605 349.68049046 -224.68439735 321.97570636 -230.79296875 293.203125 C-231.00614746 292.21505859 -231.21932617 291.22699219 -231.43896484 290.20898438 C-237.7260388 259.67604154 -237.2938486 225.64590265 -230.79296875 195.203125 C-230.58929688 194.20587402 -230.385625 193.20862305 -230.17578125 192.18115234 C-220.14148061 144.15432604 -193.1058328 94.67691212 -154.921875 62.97265625 C-153.3350093 61.65366513 -151.78582293 60.28908974 -150.2578125 58.90234375 C-110.30101935 23.36764629 -53.7461298 0.28230995 0 0 Z " fill="#222B3A" transform="translate(234.79296875,-0.203125)"/>
<path d="M0 0 C0.89203125 0.01804687 1.7840625 0.03609375 2.703125 0.0546875 C3.71632813 0.08949219 3.71632813 0.08949219 4.75 0.125 C6.24635529 2.87508975 7.10969794 5.2832605 7.64453125 8.36328125 C7.79245117 9.17547119 7.94037109 9.98766113 8.09277344 10.82446289 C8.2477832 11.68676514 8.40279297 12.54906738 8.5625 13.4375 C11.43113483 28.40902897 16.8037494 41.91555736 22.78759766 55.875 C32.94502453 79.62204366 42.54528439 103.78817232 32.8046875 129.2265625 C29.96981282 136.15336639 26.83686277 142.95806067 23.62182617 149.71557617 C21.19244639 154.83112037 19.01922049 159.85654091 17.3659668 165.27758789 C16.26813734 168.57020602 14.68503921 171.22736236 12.1875 173.625 C10.58137607 175.0887942 10.58137607 175.0887942 9.97265625 177.421875 C7.55590683 182.76497595 2.60372333 186.05453336 -2.25 189.125 C-5.72812763 190.32076143 -8.61159492 190.70049465 -12.25 190.125 C-15.625 188.3125 -15.625 188.3125 -18.25 186.125 C-18.90871094 185.91617188 -19.56742187 185.70734375 -20.24609375 185.4921875 C-23.50524217 183.26859696 -23.95504882 179.69851708 -24.9375 176.0625 C-25.93826697 171.21424374 -25.93826697 171.21424374 -28.25 167.125 C-32.74197901 143.41376792 -28.69180829 117.71287598 -16.36328125 97.046875 C-13.2134503 92.69184071 -9.43510738 89.23813624 -5.41015625 85.6953125 C-3.03314395 83.31283704 -3.03314395 83.31283704 -2.79296875 80.3046875 C-3.34651365 76.45352897 -4.36022532 72.83267095 -5.5 69.125 C-10.08309963 53.13430721 -12.62001611 37.71120223 -12.6875 21.0625 C-12.6975708 19.75958008 -12.7076416 18.45666016 -12.71801758 17.11425781 C-12.70665771 15.88932617 -12.69529785 14.66439453 -12.68359375 13.40234375 C-12.67384521 12.31171631 -12.66409668 11.22108887 -12.65405273 10.09741211 C-12.19831223 6.74475913 -11.22565554 4.84672427 -9.25 2.125 C-6.19869622 -0.01604088 -3.66787472 -0.09652302 0 0 Z " fill="#E7AB3F" transform="translate(281.25,112.875)"/>
<path d="M0 0 C6.48094352 2.85403451 12.86713827 5.91092373 19.2421875 8.99267578 C21.61121044 10.13454533 23.98697516 11.2615374 26.36303711 12.38867188 C27.88756197 13.12344435 29.41166623 13.85909029 30.93530273 14.59570312 C31.63743393 14.92606567 32.33956512 15.25642822 33.06297302 15.59680176 C37.34086413 17.69067078 40.58046132 19.8801153 43.65795898 23.62695312 C44.366593 29.20744597 43.85165512 32.83640892 40.65795898 37.62695312 C38.0244944 39.69610387 35.23461166 40.10669344 31.90014648 40.01367188 C26.58346504 39.09668326 21.61214362 36.69217736 16.65795898 34.62695312 C14.84659688 33.89496433 13.03421031 33.16550162 11.22045898 32.43945312 C10.43026367 32.12105469 9.64006836 31.80265625 8.82592773 31.47460938 C6.13508683 30.42251482 3.41271741 29.49687684 0.65795898 28.62695312 C0.98795898 29.61695313 1.31795898 30.60695312 1.65795898 31.62695312 C4.40504436 33.01870483 4.40504436 33.01870483 7.81811523 34.18554688 C8.4414122 34.41597183 9.06470917 34.64639679 9.70689392 34.88380432 C11.70760738 35.62161704 13.71350195 36.34381575 15.72045898 37.06445312 C37.5733498 45.00003935 37.5733498 45.00003935 40.65795898 49.62695312 C41.08529393 54.92590644 41.17118371 58.36089453 37.65795898 62.62695312 C34.12265499 65.37663401 29.92551429 65.10059835 25.65795898 64.62695312 C20.60860892 63.41262771 15.67184303 61.87073979 10.72045898 60.31445312 C9.38808272 59.90525223 8.05540184 59.49704181 6.72241211 59.08984375 C1.27516345 57.41782895 -4.15164426 55.70720862 -9.53344727 53.83398438 C-13.31167457 52.42554389 -13.31167457 52.42554389 -17.34204102 52.62695312 C-17.67204102 53.28695312 -18.00204102 53.94695312 -18.34204102 54.62695312 C-17.7084668 54.73724854 -17.07489258 54.84754395 -16.42211914 54.96118164 C-12.23961754 55.86524647 -8.16536543 57.07455799 -4.06079102 58.27929688 C-3.16968628 58.53949112 -2.27858154 58.79968536 -1.36047363 59.06776428 C0.51919088 59.61727542 2.39853843 60.16787179 4.27758789 60.71948242 C7.1468791 61.56120279 10.01757287 62.39800551 12.88842773 63.234375 C14.71794165 63.76988572 16.5473716 64.30568343 18.37670898 64.84179688 C19.23204224 65.0908226 20.08737549 65.33984833 20.96862793 65.59642029 C33.58741785 69.31255502 33.58741785 69.31255502 36.65795898 74.62695312 C36.65795898 78.78368883 36.05507445 81.01804275 33.78295898 84.50195312 C30.87335228 87.41155983 29.09817133 87.60576643 25.00561523 87.80273438 C20.53536305 87.74244983 16.41948918 86.89056924 12.09545898 85.81445312 C11.37938477 85.64880859 10.66331055 85.48316406 9.92553711 85.3125 C6.43880685 84.47175066 3.18681364 83.49521087 -0.09204102 82.03320312 C-2.84333091 80.84274115 -4.83852873 80.19743666 -7.77954102 79.93945312 C-8.95516602 79.83632812 -10.13079102 79.73320312 -11.34204102 79.62695312 C-10.33141602 80.22507812 -9.32079102 80.82320313 -8.27954102 81.43945312 C-4.84601634 83.85742825 -2.99694223 86.47783751 -0.84204102 90.06445312 C5.57875044 100.56350553 11.9467484 102.72703431 23.65795898 105.62695312 C23.65795898 113.54695313 23.65795898 121.46695313 23.65795898 129.62695312 C0.84574705 118.22084716 -15.50057922 95.38914582 -29.34204102 74.62695312 C-29.62915039 72.07080078 -29.62915039 72.07080078 -29.68579102 69.04101562 C-29.71543945 67.9453125 -29.74508789 66.84960938 -29.77563477 65.72070312 C-29.79754883 64.57601562 -29.81946289 63.43132812 -29.84204102 62.25195312 C-29.88556244 59.99395936 -29.93734667 57.73610632 -29.99829102 55.47851562 C-30.01698242 54.47643066 -30.03567383 53.4743457 -30.05493164 52.44189453 C-30.35555657 49.49444088 -31.17522252 47.33256151 -32.34204102 44.62695312 C-33.27584041 37.03860439 -32.84362996 31.57511026 -28.63891602 25.20898438 C-26.62395282 21.19726548 -26.09957906 16.88261213 -25.50683594 12.47338867 C-24.62279051 6.51581901 -22.7380712 1.63443787 -18.02954102 -2.31054688 C-11.22104879 -5.00227636 -6.3431478 -2.70728263 0 0 Z " fill="#DC8524" transform="translate(198.342041015625,154.373046875)"/>
<path d="M0 0 C0.06731323 0.92897095 0.06731323 0.92897095 0.13598633 1.87670898 C0.34963748 4.7313331 0.5809602 7.58427331 0.8125 10.4375 C0.88275391 11.41138672 0.95300781 12.38527344 1.02539062 13.38867188 C1.48650839 18.9036403 2.32538393 23.80121547 4.26953125 28.9921875 C5.45884288 32.2612045 6.20046616 35.61735681 7 39 C7.90878906 39.18175781 7.90878906 39.18175781 8.8359375 39.3671875 C11 40 11 40 13.625 42.125 C17.62283552 44.34601974 19.80642056 44.58896168 24.265625 43.93359375 C30.35191553 41.85556027 35.92516586 37.28515405 39.359375 31.84765625 C40.29704848 29.80588102 40.29704848 29.80588102 41 27 C41.66 27 42.32 27 43 27 C43.28875 26.21625 43.5775 25.4325 43.875 24.625 C45 22 45 22 47 20 C47.06948809 27.77116308 47.12280502 35.54225348 47.15543652 43.31364918 C47.1710975 46.92218303 47.19234315 50.53050444 47.22631836 54.13891602 C47.25889717 57.62078122 47.27684975 61.10244201 47.28463173 64.58444786 C47.29287856 66.56042097 47.31630038 68.53631175 47.33988953 70.51216125 C47.34011612 71.71317978 47.34034271 72.9141983 47.34057617 74.15161133 C47.35056892 75.74045891 47.35056892 75.74045891 47.36076355 77.36140442 C47 80 47 80 45.67402649 81.79911804 C42.9988572 83.71818118 40.18382534 84.22971968 37 85 C36.29359375 85.1753125 35.5871875 85.350625 34.859375 85.53125 C18.73308618 89.36547252 -1.29629293 90.72937903 -17 85 C-17.80824219 84.73703125 -18.61648437 84.4740625 -19.44921875 84.203125 C-24.81638158 82.36723684 -24.81638158 82.36723684 -26 80 C-26.36088186 74.14052431 -26.4427063 68.28075132 -26.51489258 62.41137695 C-26.5462063 60.4553131 -26.59360808 58.49942914 -26.65844727 56.54418945 C-27.32195107 36.23196477 -21.44256288 21.36593426 -7.53125 6.33203125 C-1.32684109 0 -1.32684109 0 0 0 Z " fill="#42AA56" transform="translate(252,258)"/>
<path d="M0 0 C3.25391008 1.61066221 5.66863955 3.60531195 8.41796875 5.9765625 C9.48494361 6.88757849 10.55266207 7.79772425 11.62109375 8.70703125 C12.14767578 9.15739746 12.67425781 9.60776367 13.21679688 10.07177734 C15.33003831 11.85848889 17.4957885 13.57474377 19.66796875 15.2890625 C23.65906957 18.45619412 27.54494961 21.73005384 31.41796875 25.0390625 C35.71460712 28.70689403 40.04442894 32.19121007 44.73046875 35.3515625 C41.94844896 38.13358229 39.03707077 37.97116455 35.29296875 38.3515625 C29.72865475 38.8885483 29.72865475 38.8885483 24.73046875 41.3515625 C24.21849873 44.59874513 24.21849873 44.59874513 24.16796875 48.2890625 C23.93755322 55.0409358 23.93755322 55.0409358 21.73046875 58.3515625 C18.64526367 58.72045898 18.64526367 58.72045898 14.7109375 58.72265625 C13.28189874 58.74004608 11.85286233 58.75763038 10.42382812 58.77539062 C8.17239909 58.78544493 5.92112823 58.7890649 3.66967773 58.78735352 C1.49545364 58.79093622 -0.67755555 58.81833179 -2.8515625 58.84765625 C-4.15327393 58.84950928 -5.45498535 58.8513623 -6.79614258 58.85327148 C-10.80329617 59.42813621 -12.43376446 60.52305252 -15.26953125 63.3515625 C-16.93302444 66.67854887 -16.51331182 70.41585635 -16.5859375 74.078125 C-16.6067186 74.94094086 -16.62749969 75.80375671 -16.64891052 76.69271851 C-16.71439159 79.45391743 -16.77328423 82.21521288 -16.83203125 84.9765625 C-16.87521785 86.84636422 -16.91883218 88.71615612 -16.96289062 90.5859375 C-17.07007149 95.17437978 -17.171343 99.76291933 -17.26953125 104.3515625 C-21.14453125 103.4765625 -21.14453125 103.4765625 -22.26953125 102.3515625 C-22.4842357 100.80539225 -22.64018347 99.25095051 -22.76953125 97.6953125 C-22.85203125 96.75558594 -22.93453125 95.81585938 -23.01953125 94.84765625 C-23.18619792 92.85026042 -23.35286458 90.85286458 -23.51953125 88.85546875 C-23.60203125 87.91574219 -23.68453125 86.97601563 -23.76953125 86.0078125 C-23.84171875 85.13962891 -23.91390625 84.27144531 -23.98828125 83.37695312 C-24.06096537 81.3590853 -24.06096537 81.3590853 -25.26953125 80.3515625 C-27.36473712 69.87553317 -27.6285902 59.21740303 -27.92773438 48.5703125 C-27.97510742 46.99636719 -27.97510742 46.99636719 -28.0234375 45.390625 C-28.04736572 44.44396973 -28.07129395 43.49731445 -28.09594727 42.52197266 C-28.03172009 40.3732125 -28.03172009 40.3732125 -29.26953125 39.3515625 C-32.12481732 38.9511795 -34.96689612 38.5997398 -37.83203125 38.2890625 C-38.63833984 38.19818359 -39.44464844 38.10730469 -40.27539062 38.01367188 C-42.27300502 37.78908801 -44.27121685 37.56983014 -46.26953125 37.3515625 C-46.76453125 35.8665625 -46.76453125 35.8665625 -47.26953125 34.3515625 C-46.32078125 33.8771875 -45.37203125 33.4028125 -44.39453125 32.9140625 C-40.04144656 30.43158047 -36.58893618 27.15145292 -32.921875 23.765625 C-28.52861955 19.76705082 -23.8983088 16.07216218 -19.26953125 12.3515625 C-18.63692383 11.84061035 -18.00431641 11.3296582 -17.35253906 10.80322266 C-15.30598395 9.15023584 -13.25695649 7.5003675 -11.20703125 5.8515625 C-10.55130127 5.32264404 -9.89557129 4.79372559 -9.2199707 4.2487793 C-2.88811882 -0.82517681 -2.88811882 -0.82517681 0 0 Z " fill="#FAFAFA" transform="translate(249.26953125,25.6484375)"/>
<path d="M0 0 C6.48094352 2.85403451 12.86713827 5.91092373 19.2421875 8.99267578 C21.61121044 10.13454533 23.98697516 11.2615374 26.36303711 12.38867188 C27.88756197 13.12344435 29.41166623 13.85909029 30.93530273 14.59570312 C31.63743393 14.92606567 32.33956512 15.25642822 33.06297302 15.59680176 C37.34086413 17.69067078 40.58046132 19.8801153 43.65795898 23.62695312 C44.366593 29.20744597 43.85165512 32.83640892 40.65795898 37.62695312 C38.0244944 39.69610387 35.23461166 40.10669344 31.90014648 40.01367188 C26.58346504 39.09668326 21.61214362 36.69217736 16.65795898 34.62695312 C14.84659688 33.89496433 13.03421031 33.16550162 11.22045898 32.43945312 C10.43026367 32.12105469 9.64006836 31.80265625 8.82592773 31.47460938 C6.13508683 30.42251482 3.41271741 29.49687684 0.65795898 28.62695312 C0.98795898 29.61695313 1.31795898 30.60695312 1.65795898 31.62695312 C4.40504436 33.01870483 4.40504436 33.01870483 7.81811523 34.18554688 C8.4414122 34.41597183 9.06470917 34.64639679 9.70689392 34.88380432 C11.70760738 35.62161704 13.71350195 36.34381575 15.72045898 37.06445312 C37.5733498 45.00003935 37.5733498 45.00003935 40.65795898 49.62695312 C40.91556178 52.32147834 40.74695952 54.91243687 40.65795898 57.62695312 C39.99795898 57.62695312 39.33795898 57.62695312 38.65795898 57.62695312 C38.32795898 56.63695312 37.99795898 55.64695313 37.65795898 54.62695312 C37.05959229 54.5214917 36.46122559 54.41603027 35.84472656 54.30737305 C25.6993634 52.51174217 15.60258571 50.69238837 5.58374023 48.27539062 C1.44316497 47.35771974 -2.72790665 46.7691186 -6.92407227 46.16601562 C-12.02989475 45.36075448 -17.07144121 44.28451993 -22.12719727 43.21289062 C-25.45326922 42.50741566 -25.45326922 42.50741566 -29.34204102 42.62695312 C-30.00204102 43.61695313 -30.66204102 44.60695312 -31.34204102 45.62695312 C-33.17126299 43.79773115 -32.64283977 41.09271745 -32.71704102 38.62695312 C-32.68597794 32.8927099 -31.73568988 29.89763919 -28.63891602 25.20898438 C-26.62395282 21.19726548 -26.09957906 16.88261213 -25.50683594 12.47338867 C-24.62279051 6.51581901 -22.7380712 1.63443787 -18.02954102 -2.31054688 C-11.22104879 -5.00227636 -6.3431478 -2.70728263 0 0 Z " fill="#F18925" transform="translate(198.342041015625,154.373046875)"/>
<path d="M0 0 C26.30569307 0 26.30569307 0 33.375 5.25 C38.44064104 10.55686205 40.24489839 14.0076629 40.5625 21.3125 C40.33215647 27.76954939 38.98776567 32.84953639 35 38 C24.76340569 46.91235316 13.60429878 45 0 45 C0 30.15 0 15.3 0 0 Z " fill="#F4F5F6" transform="translate(179,370)"/>
<path d="M0 0 C3.35409194 -0.05859857 6.70805017 -0.09379582 10.0625 -0.125 C11.47692383 -0.15013672 11.47692383 -0.15013672 12.91992188 -0.17578125 C19.88459545 -0.22431556 25.52738902 -0.20956726 30.9375 4.625 C33.094121 8.15401619 33.74061421 9.99602028 33.5078125 14.03125 C32.6055542 17.52923602 30.52227532 19.47772468 28 22 C28.5053125 22.35191406 29.010625 22.70382812 29.53125 23.06640625 C34.82041564 27.08575236 34.82041564 27.08575236 35.6875 31.5 C34.72434675 36.40332563 32.68692381 39.42190999 29.0625 42.8125 C25.2705597 44.99573836 21.25355355 45.12708732 16.953125 45.1328125 C15.56287109 45.13474609 15.56287109 45.13474609 14.14453125 45.13671875 C12.71173828 45.13091797 12.71173828 45.13091797 11.25 45.125 C10.27933594 45.12886719 9.30867188 45.13273437 8.30859375 45.13671875 C7.38691406 45.13542969 6.46523438 45.13414062 5.515625 45.1328125 C4.67290039 45.13168457 3.83017578 45.13055664 2.96191406 45.12939453 C1 45 1 45 0 44 C-0.0927833 42.61839885 -0.11747043 41.23211962 -0.11352539 39.84741211 C-0.11341209 38.52615578 -0.11341209 38.52615578 -0.11329651 37.1782074 C-0.10555458 35.74227989 -0.10555458 35.74227989 -0.09765625 34.27734375 C-0.0962413 33.30213272 -0.09482635 32.32692169 -0.09336853 31.32215881 C-0.08775133 28.19390857 -0.07519593 25.06572877 -0.0625 21.9375 C-0.05748722 19.82226666 -0.05292393 17.70703219 -0.04882812 15.59179688 C-0.03777631 10.39450704 -0.02102146 5.19725855 0 0 Z " fill="#F1F2F3" transform="translate(297,370)"/>
<path d="M0 0 C9 0 9 0 11.10400391 1.40185547 C11.55694824 2.05041504 12.00989258 2.69897461 12.4765625 3.3671875 C13.0025 4.0890625 13.5284375 4.8109375 14.0703125 5.5546875 C14.58335937 6.32039063 15.09640625 7.08609375 15.625 7.875 C16.14578125 8.60203125 16.6665625 9.3290625 17.203125 10.078125 C18.8317285 12.36458804 20.41538321 14.68283531 22 17 C24.31 20.3 26.62 23.6 29 27 C29.33 18.09 29.66 9.18 30 0 C33.3 0 36.6 0 40 0 C40 14.85 40 29.7 40 45 C30 45 30 45 27.40625 42.8671875 C26.7771875 41.87976563 26.148125 40.89234375 25.5 39.875 C24.41912109 38.25078125 24.41912109 38.25078125 23.31640625 36.59375 C22.76170654 35.72169922 22.76170654 35.72169922 22.19580078 34.83203125 C20.92872313 32.89079999 19.58779212 31.02395029 18.21484375 29.15625 C17.75207031 28.52605957 17.28929687 27.89586914 16.8125 27.24658203 C16.131875 26.32014893 16.131875 26.32014893 15.4375 25.375 C11 19.31871811 11 19.31871811 11 17 C10.34 17 9.68 17 9 17 C9 26.24 9 35.48 9 45 C6.03 45 3.06 45 0 45 C0 30.15 0 15.3 0 0 Z " fill="#F3F3F4" transform="translate(128,370)"/>
<path d="M0 0 C1.9305893 1.05424672 3.85368179 2.12232343 5.76953125 3.203125 C6.74083984 3.7290625 7.71214844 4.255 8.71289062 4.796875 C13.69647434 7.55680347 17.83734481 10.14247146 21.58203125 14.453125 C21.91203125 14.783125 22.24203125 15.113125 22.58203125 15.453125 C23.033886 20.31056353 22.24666517 23.36735299 19.58203125 27.453125 C14.86164295 31.54412819 14.86164295 31.54412819 10.83227539 31.25756836 C7.09116904 30.3316354 3.81586437 28.86232708 0.390625 27.14453125 C-0.27710434 26.81774887 -0.94483368 26.49096649 -1.63279724 26.15428162 C-3.75236065 25.11534191 -5.86653281 24.06596054 -7.98046875 23.015625 C-10.09895064 21.97097016 -12.21849895 20.92853156 -14.33885193 19.88768005 C-15.65353209 19.2414746 -16.96696892 18.59273141 -18.27894592 17.9410553 C-21.60988316 16.29508355 -24.94584568 14.77683847 -28.41796875 13.453125 C-28.09352964 8.09987973 -25.13588427 5.00167777 -21.41796875 1.453125 C-14.08235149 -4.71786849 -8.36872711 -4.23266156 0 0 Z " fill="#F29F28" transform="translate(219.41796875,134.546875)"/>
<path d="M0 0 C3.3 0 6.6 0 10 0 C10.33209473 0.80518066 10.66418945 1.61036133 11.00634766 2.43994141 C12.26926315 5.50063879 13.5330437 8.56097624 14.79736328 11.62109375 C15.3387121 12.93182858 15.87974082 14.24269568 16.42041016 15.55371094 C17.20906423 17.46586662 17.99878942 19.3775754 18.7890625 21.2890625 C19.05076233 21.92265686 19.31246216 22.55625122 19.58209229 23.20904541 C20.94162687 26.48904872 22.32200327 29.75828519 23.73730469 33.01464844 C24.0160141 33.65687347 24.29472351 34.29909851 24.58187866 34.96078491 C25.35503101 36.73625847 26.13317874 38.50955428 26.91162109 40.28271484 C28 43 28 43 28 45 C24.37 45 20.74 45 17 45 C16.01 40.05 16.01 40.05 15 35 C8.4 35 1.8 35 -5 35 C-5.33 36.32 -5.66 37.64 -6 39 C-6.65509503 41.00382009 -7.31974363 43.00458132 -8 45 C-11.3 45 -14.6 45 -18 45 C-16.44350728 39.39662621 -14.80692392 34.36659105 -12.09375 29.23828125 C-10.24308537 25.45102829 -8.8546296 21.48519952 -7.37109375 17.54296875 C-5.08052585 11.62403689 -2.53770031 5.81665328 0 0 Z " fill="#F3F3F5" transform="translate(263,370)"/>
<path d="M0 0 C2.36902294 1.14186955 4.74478766 2.26886162 7.12084961 3.39599609 C8.64537447 4.13076857 10.16947873 4.86641451 11.69311523 5.60302734 C12.39524643 5.93338989 13.09737762 6.26375244 13.82078552 6.60412598 C18.10882268 8.70296112 21.25645134 10.95028708 24.41577148 14.63427734 C25.03873704 17.48995147 24.66662536 19.6742016 24.41577148 22.63427734 C23.42577148 23.12927734 23.42577148 23.12927734 22.41577148 23.63427734 C22.41577148 22.97427734 22.41577148 22.31427734 22.41577148 21.63427734 C19.44577148 21.30427734 16.47577148 20.97427734 13.41577148 20.63427734 C13.41577148 19.97427734 13.41577148 19.31427734 13.41577148 18.63427734 C12.31233398 18.53630859 11.20889648 18.43833984 10.07202148 18.33740234 C4.80319089 17.67532609 -0.06051095 16.05488794 -5.08422852 14.38427734 C-7.03729184 13.74997282 -8.9904173 13.11585961 -10.94360352 12.48193359 C-12.8238212 11.86607672 -14.70403005 11.25019289 -16.58422852 10.63427734 C-29.81285872 5.74908357 -29.81285872 5.74908357 -43.58422852 3.63427734 C-43.33160741 -2.16337698 -43.01604107 -6.18715654 -38.58422852 -10.36572266 C-28.16865281 -17.9080361 -9.77231666 -4.72401951 0 0 Z " fill="#F39627" transform="translate(217.584228515625,163.36572265625)"/>
<path d="M0 0 C5.14077234 2.87960556 7.92205153 6.54647547 9.640625 12.1640625 C10.46078349 18.00769172 8.97741983 21.53857449 5.640625 26.1640625 C2.16103148 30.45556117 -1.29354259 31.83451048 -6.7578125 32.421875 C-12.50546233 32.68077815 -15.88947406 32.10183238 -20.359375 28.1640625 C-25.02678925 22.86591659 -25.66086061 19.80050844 -25.5703125 12.85546875 C-25.18285837 7.91184103 -22.91780682 5.54760694 -19.359375 2.4140625 C-13.79061395 -1.76250829 -6.57428789 -2.32930067 0 0 Z " fill="#F5F5F6" transform="translate(363.359375,382.8359375)"/>
<path d="M0 0 C1.32 0.66 2.64 1.32 4 2 C5.87579667 2.47467441 7.75258994 2.94591795 9.63525391 3.39257812 C14.38746196 4.6132568 19.02608159 6.22490354 23.6875 7.75 C35.05448991 11.43339472 46.48743617 14.80408323 58 18 C58 18.66 58 19.32 58 20 C59.093125 19.938125 60.18625 19.87625 61.3125 19.8125 C65 20 65 20 66.9375 21.5 C67.288125 21.995 67.63875 22.49 68 23 C66.55813953 27.56589147 66.55813953 27.56589147 64.3125 29.3125 C56.11410136 31.74986176 49.5561403 28.14988747 42 25 C40.18863789 24.2680112 38.37625132 23.53854849 36.5625 22.8125 C35.77230469 22.49410156 34.98210937 22.17570312 34.16796875 21.84765625 C31.47712785 20.7955617 28.75475842 19.86992371 26 19 C25.67 19.99 25.34 20.98 25 22 C23.80503906 21.57847656 22.61007813 21.15695313 21.37890625 20.72265625 C19.77360646 20.16878088 18.16812802 19.61542312 16.5625 19.0625 C15.77939453 18.78470703 14.99628906 18.50691406 14.18945312 18.22070312 C8.75499959 16.3644906 3.72734647 15.45291328 -2 15 C-1.34 10.05 -0.68 5.1 0 0 Z " fill="#D47B26" transform="translate(173,164)"/>
<path d="M0 0 C6.62831038 0.57140607 12.937791 1.81355979 19.4296875 3.25390625 C22.5773618 3.91168064 25.69192992 4.42937019 28.875 4.875 C36.49067155 5.97776432 43.9899319 7.62103823 51.51123047 9.23583984 C56.66403265 10.33589503 61.77109747 11.34454602 67 12 C67.99 14.97 67.99 14.97 69 18 C64.29130263 22.86565395 64.29130263 22.86565395 59.80859375 23.33203125 C52.99492628 23.2413463 46.5044423 20.7122892 40.0625 18.6875 C38.73012373 18.27829911 37.39744285 17.87008869 36.06445312 17.46289062 C30.61720447 15.79087583 25.19039675 14.0802555 19.80859375 12.20703125 C16.03036644 10.79859077 16.03036644 10.79859077 12 11 C11.67 11.66 11.34 12.32 11 13 C7.37 13 3.74 13 0 13 C-2.23269231 4.56538462 -2.23269231 4.56538462 -1.0546875 1.703125 C-0.70664063 1.14109375 -0.35859375 0.5790625 0 0 Z " fill="#D67825" transform="translate(169,196)"/>
<path d="M0 0 C14.77142857 0 14.77142857 0 19 4 C22.24791905 8.87187857 21.71404724 14.3090435 21 20 C18.55990446 23.36337494 16.42178255 24.71881164 13 27 C8.71 27 4.42 27 0 27 C0 18.09 0 9.18 0 0 Z " fill="#2B3442" transform="translate(188,379)"/>
<path d="M0 0 C4.86480257 0.31385823 8.81375434 0.77054577 13.25 2.8125 C21.62680361 6.46564279 31.04614527 7.46279392 40 9 C39.01 9.33 38.02 9.66 37 10 C37 23.53 37 37.06 37 51 C36.67 51 36.34 51 36 51 C36 43.08 36 35.16 36 27 C33.36 26.67 30.72 26.34 28 26 C21.43974151 24.54216478 17.12249878 21.24592855 13 16 C11.45871717 13.46676334 10.0096464 10.89212887 8.5546875 8.30859375 C6.2358497 4.8652944 3.50060052 3.17037232 0 1 C0 0.67 0 0.34 0 0 Z " fill="#6E4B1F" transform="translate(186,233)"/>
<path d="M0 0 C2.97 0 5.94 0 9 0 C9 14.85 9 29.7 9 45 C5.7 45 2.4 45 -1 45 C-1.02464455 38.75203746 -1.04283343 32.50410297 -1.05493164 26.25610352 C-1.05997298 24.12881986 -1.06680591 22.00153969 -1.07543945 19.87426758 C-1.08751379 16.82372174 -1.09323014 13.77322155 -1.09765625 10.72265625 C-1.10281754 9.76537125 -1.10797882 8.80808624 -1.11329651 7.8217926 C-1.11337204 6.94095505 -1.11344757 6.06011749 -1.11352539 5.15258789 C-1.115746 4.37315323 -1.11796661 3.59371857 -1.12025452 2.79066467 C-1 1 -1 1 0 0 Z " fill="#E9EAEC" transform="translate(229,370)"/>
<path d="M0 0 C2.97 0 5.94 0 9 0 C10 1 10 1 10.12025452 2.79066467 C10.1169236 3.95981667 10.1169236 3.95981667 10.11352539 5.15258789 C10.11344986 6.03342545 10.11337433 6.914263 10.11329651 7.8217926 C10.10813522 8.77907761 10.10297394 9.73636261 10.09765625 10.72265625 C10.0962413 11.69786728 10.09482635 12.67307831 10.09336853 13.67784119 C10.08775133 16.80609143 10.07519593 19.93427123 10.0625 23.0625 C10.05748722 25.17773334 10.05292393 27.29296781 10.04882812 29.40820312 C10.03777631 34.60549607 10.02050016 39.80273608 10 45 C6.7 45 3.4 45 0 45 C0 30.15 0 15.3 0 0 Z " fill="#E8E9EB" transform="translate(107,370)"/>
<path d="M0 0 C2.97 0 5.94 0 9 0 C9 15.18 9 30.36 9 46 C6.03 46 3.06 46 0 46 C0 30.82 0 15.64 0 0 Z " fill="#EFEFF1" transform="translate(380,369)"/>
<path d="M0 0 C0.33 0.99 0.66 1.98 1 3 C0.01 3.99 -0.98 4.98 -2 6 C-1.195625 6.09474609 -1.195625 6.09474609 -0.375 6.19140625 C8.38871358 7.5607365 16.00399721 11.34808157 24 15 C30.74239181 18.05315855 36.57003534 19.68383129 44 20 C43.02503465 23.50987527 42.04799249 24.95855194 39.25 27.375 C35.32969008 29.33515496 34.18172316 29.04126385 30 28 C27.54048099 26.95930699 25.18938363 25.88539899 22.80859375 24.69140625 C22.14086441 24.36462387 21.47313507 24.03784149 20.78517151 23.70115662 C18.6656081 22.66221691 16.55143594 21.61283554 14.4375 20.5625 C12.31901811 19.51784516 10.1994698 18.47540656 8.07911682 17.43455505 C6.76443666 16.7883496 5.45099983 16.13960641 4.13902283 15.4879303 C0.80808559 13.84195855 -2.52787693 12.32371347 -6 11 C-5.55530671 5.96014269 -3.28656638 3.62365012 0 0 Z " fill="#D07F27" transform="translate(197,137)"/>
<path d="M0 0 C3.33219018 2.13601934 3.89315459 3.6327189 5 7.4375 C5 11 5 11 3.1875 13.875 C0.3997303 16.58311914 -0.46844581 16.94093842 -4.375 17.375 C-8 17 -8 17 -10.4375 15 C-12.59775838 10.8523039 -12.59107389 8.65470688 -12 4 C-9.1635787 -0.72736883 -5.07159122 -1.01015267 0 0 Z " fill="#2D3543" transform="translate(359,390)"/>
<path d="M0 0 C0.89203125 0.01804687 1.7840625 0.03609375 2.703125 0.0546875 C3.71632813 0.08949219 3.71632813 0.08949219 4.75 0.125 C7.08325556 3.95965479 7.64183551 8.14590069 8.375 12.5 C8.5090625 13.2425 8.643125 13.985 8.78125 14.75 C9.50433672 18.92619475 9.89862783 22.86883927 9.75 27.125 C8.1 27.785 6.45 28.445 4.75 29.125 C2.27835878 23.14321285 0.96146988 17.52094962 0.0625 11.125 C-0.06705078 10.25488281 -0.19660156 9.38476562 -0.33007812 8.48828125 C-0.64457518 6.36833814 -0.94841096 4.24681791 -1.25 2.125 C-3.89 2.785 -6.53 3.445 -9.25 4.125 C-9.96639636 9.85617091 -10.35497567 15.35133809 -10.25 21.125 C-10.91 21.455 -11.57 21.785 -12.25 22.125 C-12.33139142 19.72847472 -12.39067009 17.33474564 -12.4375 14.9375 C-12.47520508 13.92719727 -12.47520508 13.92719727 -12.51367188 12.89648438 C-12.57907829 8.42704626 -12.09051619 5.6166008 -9.25 2.125 C-6.19869622 -0.01604088 -3.66787472 -0.09652302 0 0 Z " fill="#F2DCBC" transform="translate(281.25,112.875)"/>
<path d="M0 0 C1.91595968 -0.08133791 3.83291932 -0.13934367 5.75 -0.1875 C7.35101563 -0.23970703 7.35101563 -0.23970703 8.984375 -0.29296875 C12.33079823 0.03213713 13.64733307 0.64173148 16 3 C16.5 5.5 16.5 5.5 16 8 C13.64733307 10.35826852 12.33079823 10.96786287 8.984375 11.29296875 C7.91703125 11.25816406 6.8496875 11.22335937 5.75 11.1875 C4.13351562 11.14689453 4.13351562 11.14689453 2.484375 11.10546875 C1.66453125 11.07066406 0.8446875 11.03585937 0 11 C0 7.37 0 3.74 0 0 Z " fill="#38404D" transform="translate(306,396)"/>
<path d="M0 0 C1.95803507 -0.05389087 3.91648909 -0.09274217 5.875 -0.125 C7.51082031 -0.15980469 7.51082031 -0.15980469 9.1796875 -0.1953125 C12 0 12 0 14 2 C14.125 5.125 14.125 5.125 14 8 C10.78817851 9.90608098 8.46117397 10.22266247 4.75 10.125 C3.1825 10.08375 1.615 10.0425 0 10 C0 6.7 0 3.4 0 0 Z " fill="#353D4A" transform="translate(306,379)"/>
<path d="M0 0 C7.39995722 -0.47789835 12.37345785 0.92791858 19.0625 4 C19.92810547 4.3815625 20.79371094 4.763125 21.68554688 5.15625 C23.79738003 6.08965692 25.90129815 7.0375217 28 8 C27.34 9.32 26.68 10.64 26 12 C24.80503906 11.57847656 23.61007813 11.15695313 22.37890625 10.72265625 C20.77360646 10.16878088 19.16812802 9.61542312 17.5625 9.0625 C16.77939453 8.78470703 15.99628906 8.50691406 15.18945312 8.22070312 C9.75499959 6.3644906 4.72734647 5.45291328 -1 5 C-0.67 3.35 -0.34 1.7 0 0 Z " fill="#AC6B23" transform="translate(172,174)"/>
<path d="M0 0 C5.85146047 0.63180221 10.95382635 2.78048372 16.375 4.9375 C22.53695388 7.38390072 28.52317694 9.55143653 35 11 C33.02 11.99 33.02 11.99 31 13 C31.33 13.66 31.66 14.32 32 15 C24.87683371 12.94920107 17.88796001 10.63765279 10.9375 8.0625 C9.98939453 7.72798828 9.04128906 7.39347656 8.06445312 7.04882812 C7.16533203 6.71431641 6.26621094 6.37980469 5.33984375 6.03515625 C4.52894287 5.7400415 3.71804199 5.44492676 2.88256836 5.14086914 C1 4 1 4 0.22875977 1.87280273 C0.15326904 1.25477783 0.07777832 0.63675293 0 0 Z " fill="#37302D" transform="translate(199,183)"/>
<path d="M0 0 C0.66 0 1.32 0 2 0 C2.83739781 2.1234016 3.66980283 4.2487728 4.5 6.375 C4.9640625 7.55835938 5.428125 8.74171875 5.90625 9.9609375 C7 13 7 13 7 15 C3.04 15 -0.92 15 -5 15 C-4.23239022 11.16195111 -3.40495674 8.23779856 -1.9375 4.6875 C-1.39416016 3.36298828 -1.39416016 3.36298828 -0.83984375 2.01171875 C-0.56269531 1.34785156 -0.28554688 0.68398438 0 0 Z " fill="#373F4A" transform="translate(267,382)"/>
<path d="M0 0 C6.33128577 0.41516628 11.49101988 1.72534172 17.40234375 4.01171875 C20.56346875 5.21437232 23.73424753 6.12913268 27 7 C26 9 26 9 23.6171875 9.83984375 C18.34076885 10.07346488 14.04739555 8.33336182 9.125 6.5625 C8.15046875 6.22412109 7.1759375 5.88574219 6.171875 5.53710938 C3.77670724 4.70349707 1.38667512 3.85756232 -1 3 C-0.67 2.01 -0.34 1.02 0 0 Z " fill="#42392F" transform="translate(181,206)"/>
<path d="M0 0 C0.33 0.66 0.66 1.32 1 2 C2.74330749 2.73392019 2.74330749 2.73392019 4.875 3.3125 C10.47594338 5.0622311 15.7026493 7.4948977 21 10 C20.67 11.32 20.34 12.64 20 14 C16.54422747 12.96326824 13.37596004 11.73021157 10.1875 10.0625 C5.94173055 7.86981055 1.56154987 6.3938069 -3 5 C-2.01 3.35 -1.02 1.7 0 0 Z " fill="#58462A" transform="translate(190,146)"/>
<path d="M0 0 C3.05351343 0.97603376 6.00493587 1.3606481 9.1875 1.69921875 C8.5275 3.01921875 7.8675 4.33921875 7.1875 5.69921875 C-13.33293597 2.17878278 -13.33293597 2.17878278 -17.8125 -2.30078125 C-11.69650107 -4.33944756 -5.83402165 -2.07634451 0 0 Z " fill="#363434" transform="translate(221.8125,217.30078125)"/>
<path d="M0 0 C5.69051363 0.5381371 11.34865884 1.1400133 17 2 C16.01 2.33 15.02 2.66 14 3 C14 7.95 14 12.9 14 18 C13.67 18 13.34 18 13 18 C13 14.04 13 10.08 13 6 C11.1746875 5.8453125 11.1746875 5.8453125 9.3125 5.6875 C5.59852427 5.22572682 3.00373615 4.34666887 0 2 C0 1.34 0 0.68 0 0 Z " fill="#463A2C" transform="translate(209,240)"/>
<path d="M0 0 C0.33 0 0.66 0 1 0 C1 4.95 1 9.9 1 15 C0.67 15 0.34 15 0 15 C-0.33 12.36 -0.66 9.72 -1 7 C-1.43570312 7.66386719 -1.87140625 8.32773437 -2.3203125 9.01171875 C-5.79465754 14.1630745 -8.97705443 18.32467397 -14 22 C-14.66 21.67 -15.32 21.34 -16 21 C-15.45730469 20.57589844 -14.91460937 20.15179688 -14.35546875 19.71484375 C-9.59291727 15.81040965 -6.91769449 12.87293936 -5 7 C-4.34 7 -3.68 7 -3 7 C-2.690625 6.21625 -2.38125 5.4325 -2.0625 4.625 C-1 2 -1 2 0 0 Z " fill="#66B868" transform="translate(298,278)"/>
<path d="M0 0 C2.12563103 0.11376617 4.2505261 0.24135631 6.375 0.375 C8.15003906 0.47941406 8.15003906 0.47941406 9.9609375 0.5859375 C13 1 13 1 15 3 C13.85546875 4.48828125 13.85546875 4.48828125 12 6 C9.30078125 6.29296875 9.30078125 6.29296875 6.3125 6.1875 C5.31863281 6.16042969 4.32476562 6.13335937 3.30078125 6.10546875 C2.54152344 6.07066406 1.78226563 6.03585938 1 6 C0.67 4.02 0.34 2.04 0 0 Z " fill="#B66B23" transform="translate(168,203)"/>
<path d="M0 0 C5.23272633 1.63958758 10.15196636 3.38952035 15 6 C14.67 6.66 14.34 7.32 14 8 C14.66 8.33 15.32 8.66 16 9 C15.67 9.66 15.34 10.32 15 11 C10.05 8.69 5.1 6.38 0 4 C0 2.68 0 1.36 0 0 Z " fill="#433C2C" transform="translate(210,157)"/>
<path d="M0 0 C0.58007812 0.20496094 1.16015625 0.40992188 1.7578125 0.62109375 C6.1621984 2.14009813 10.35677777 3.4047151 15 4 C13.02 4.99 13.02 4.99 11 6 C11.33 6.66 11.66 7.32 12 8 C10.39120578 7.60157441 8.78801827 7.18046843 7.1875 6.75 C6.29417969 6.51796875 5.40085938 6.2859375 4.48046875 6.046875 C1.62353901 4.84111568 0.61630966 3.59898297 -1 1 C-0.67 0.67 -0.34 0.34 0 0 Z " fill="#373333" transform="translate(219,190)"/>
<path d="M0 0 C0.33 0.66 0.66 1.32 1 2 C3.11327425 2.90725434 3.11327425 2.90725434 5.5625 3.625 C6.38878906 3.88539063 7.21507812 4.14578125 8.06640625 4.4140625 C9.02353516 4.70410156 9.02353516 4.70410156 10 5 C9.01 5.495 9.01 5.495 8 6 C7.67 6.99 7.34 7.98 7 9 C2.05 7.02 2.05 7.02 -3 5 C-2.01 3.35 -1.02 1.7 0 0 Z " fill="#8D6228" transform="translate(190,146)"/>
<path d="M0 0 C1.43836751 0.11458693 2.87570966 0.24209116 4.3125 0.375 C5.51326172 0.47941406 5.51326172 0.47941406 6.73828125 0.5859375 C9 1 9 1 12 3 C11.34 3 10.68 3 10 3 C10 3.99 10 4.98 10 6 C6.0507432 5.44894091 2.65079826 4.61064629 -1 3 C-0.67 2.01 -0.34 1.02 0 0 Z " fill="#7C511F" transform="translate(181,206)"/>
<path d="M0 0 C3.55780196 0.60990891 6.6828589 1.5783681 10 3 C9.34 4.32 8.68 5.64 8 7 C4.5625 5.75 4.5625 5.75 1 4 C0.0625 1.8125 0.0625 1.8125 0 0 Z " fill="#775120" transform="translate(190,179)"/>
<path d="M0 0 C1 2 1 2 0 5.25 C-1.95300288 9.62362617 -5.23175756 12.18156114 -9 15 C-9.66 14.67 -10.32 14.34 -11 14 C-10.45730469 13.57589844 -9.91460937 13.15179688 -9.35546875 12.71484375 C-4.59291727 8.81040965 -1.91769449 5.87293936 0 0 Z " fill="#7AA848" transform="translate(293,285)"/>
<path d="M0 0 C3.3 0.33 6.6 0.66 10 1 C9.01 1.66 8.02 2.32 7 3 C7.66 3.66 8.32 4.32 9 5 C5.625 4.75 5.625 4.75 2 4 C1.34 2.68 0.68 1.36 0 0 Z " fill="#523E27" transform="translate(209,240)"/>
<path d="M0 0 C5.75 0.875 5.75 0.875 8 2 C8 3.32 8 4.64 8 6 C5.69 5.34 3.38 4.68 1 4 C0.67 2.68 0.34 1.36 0 0 Z " fill="#4E3F28" transform="translate(199,183)"/>
<path d="M0 0 C3.29714793 0.32971479 4.6226839 0.6226839 7 3 C6.67 3.33 6.34 3.66 6 4 C6.66 4.33 7.32 4.66 8 5 C7.67 5.66 7.34 6.32 7 7 C4.03 5.35 1.06 3.7 -2 2 C-1.34 1.34 -0.68 0.68 0 0 Z " fill="#353129" transform="translate(218,161)"/>
<path d="M0 0 C1.98 0.495 1.98 0.495 4 1 C4.33 2.65 4.66 4.3 5 6 C3.35 5.67 1.7 5.34 0 5 C-0.33 4.01 -0.66 3.02 -1 2 C-0.67 1.34 -0.34 0.68 0 0 Z " fill="#97611F" transform="translate(186,177)"/>
<path d="M0 0 C0 1.65 0 3.3 0 5 C-0.5775 5.0825 -1.155 5.165 -1.75 5.25 C-4.6159304 6.20531013 -5.9990764 7.78469173 -8 10 C-8.66 9.67 -9.32 9.34 -10 9 C-8.52386015 7.49702124 -7.04400843 5.99768715 -5.5625 4.5 C-4.73878906 3.6646875 -3.91507813 2.829375 -3.06640625 1.96875 C-1 0 -1 0 0 0 Z " fill="#6AAC59" transform="translate(252,258)"/>
<path d="M0 0 C2.31 0.33 4.62 0.66 7 1 C7 1.99 7 2.98 7 4 C5.1875 4.625 5.1875 4.625 3 5 C2.01 4.34 1.02 3.68 0 3 C0 2.01 0 1.02 0 0 Z " fill="#3E382F" transform="translate(207,186)"/>
<path d="M0 0 C2.31 0.33 4.62 0.66 7 1 C6.67 2.32 6.34 3.64 6 5 C4.02 4.34 2.04 3.68 0 3 C0 2.01 0 1.02 0 0 Z " fill="#514030" transform="translate(191,209)"/>
<path d="M0 0 C3.3 0 6.6 0 10 0 C9.34 1.65 8.68 3.3 8 5 C7.34 5 6.68 5 6 5 C5.67 4.01 5.34 3.02 5 2 C3.35 1.67 1.7 1.34 0 1 C0 0.67 0 0.34 0 0 Z " fill="#DA892A" transform="translate(231,157)"/>
<path d="M0 0 C1.98 0 3.96 0 6 0 C5.34 1.32 4.68 2.64 4 4 C1.69 3.67 -0.62 3.34 -3 3 C-2.01 2.67 -1.02 2.34 0 2 C0 1.34 0 0.68 0 0 Z " fill="#423B3B" transform="translate(225,219)"/>
<path d="M0 0 C2.64 0 5.28 0 8 0 C6.515 1.98 6.515 1.98 5 4 C2.525 3.01 2.525 3.01 0 2 C0 1.34 0 0.68 0 0 Z " fill="#955D1E" transform="translate(175,205)"/>
<path d="M0 0 C1.98 0 3.96 0 6 0 C5.01 0.495 5.01 0.495 4 1 C4 1.99 4 2.98 4 4 C2.68 3.67 1.36 3.34 0 3 C0 2.01 0 1.02 0 0 Z " fill="#674926" transform="translate(187,208)"/>
<path d="M0 0 C0.4125 0.639375 0.825 1.27875 1.25 1.9375 C3.17810487 4.20990931 4.11424181 4.60196439 7 5 C5.68 5.99 4.36 6.98 3 8 C0.37613513 4.93882432 0 4.26826873 0 0 Z " fill="#FBD59F" transform="translate(284,134)"/>
</svg>
