<?xml version="1.0" standalone="no"?>
<!DOCTYPE svg PUBLIC "-//W3C//DTD SVG 20010904//EN"
 "http://www.w3.org/TR/2001/REC-SVG-20010904/DTD/svg10.dtd">
<svg version="1.0" xmlns="http://www.w3.org/2000/svg"
 width="494.000000pt" height="488.000000pt" viewBox="0 0 494.000000 488.000000"
 preserveAspectRatio="xMidYMid meet">

<g transform="translate(0.000000,488.000000) scale(0.100000,-0.100000)"
fill="#000000" stroke="none">
<path d="M2210 4869 c-459 -47 -913 -233 -1292 -529 -196 -154 -434 -423 -566
-641 -469 -777 -469 -1741 0 -2518 132 -218 370 -487 566 -641 454 -355 985
-540 1553 -540 566 0 1097 185 1551 540 196 154 434 423 566 641 469 777 469
1741 0 2518 -132 218 -370 487 -566 641 -386 302 -834 483 -1311 530 -120 12
-379 11 -501 -1z m354 -301 c93 -71 232 -185 294 -240 23 -21 54 -43 70 -49
36 -14 16 -24 -63 -33 -97 -11 -122 -22 -129 -58 -3 -17 -6 -43 -6 -58 0 -15
-5 -41 -11 -58 l-10 -31 -165 -3 -164 -3 -27 -28 -28 -27 -3 -200 c-2 -147 -6
-200 -15 -200 -31 1 -38 20 -47 131 -6 63 -15 132 -21 154 -5 22 -12 110 -16
195 -3 85 -10 160 -15 167 -5 6 -46 14 -92 18 -105 9 -118 16 -73 42 19 12 88
65 153 120 202 168 269 222 278 223 5 0 46 -28 90 -62z m288 -820 c11 -9 26
-61 43 -148 21 -106 41 -171 95 -300 155 -376 184 -474 185 -620 0 -125 -14
-174 -114 -385 l-66 -140 -5 -322 c-4 -250 -8 -325 -18 -335 -11 -11 -13 -10
-10 6 1 10 -3 21 -9 23 -7 3 -13 -3 -13 -12 0 -25 -18 -8 -25 23 l-6 28 -318
-3 -319 -3 -7 126 c-11 184 -4 231 54 349 35 72 71 125 125 188 l77 87 10 82
c25 204 88 355 198 471 l68 72 -29 100 c-51 176 -70 292 -75 447 -8 216 0 241
83 263 62 17 57 17 76 3z m-611 -249 c151 -84 169 -100 169 -153 0 -61 -42
-115 -90 -116 -13 0 -96 34 -185 77 -88 42 -177 81 -198 88 l-39 11 38 49 c63
84 117 119 167 110 15 -3 78 -32 138 -66z m-293 -153 c158 -67 432 -208 451
-232 40 -51 17 -134 -44 -160 -38 -15 -52 -11 -413 130 -79 31 -159 57 -178
59 l-34 2 6 60 c8 72 23 104 64 139 39 33 74 33 148 2z m-20 -306 c86 -32 204
-77 262 -100 57 -22 110 -40 116 -40 23 0 72 -50 79 -79 15 -71 -55 -142 -121
-122 -16 5 -130 39 -254 76 -124 36 -247 68 -275 70 -47 3 -51 5 -62 37 -32
91 12 218 77 218 12 0 92 -27 178 -60z m-48 -276 c143 -45 221 -68 330 -96
101 -26 130 -49 130 -106 0 -45 -32 -87 -76 -98 -19 -5 -82 7 -193 35 -91 22
-177 44 -191 47 -21 5 -16 -1 23 -36 26 -23 56 -59 67 -79 10 -21 32 -52 49
-70 17 -18 34 -44 37 -57 8 -31 56 -80 124 -126 24 -17 25 -17 32 5 3 12 6
-13 7 -55 1 -43 -2 -78 -5 -78 -3 0 -35 21 -72 47 -135 96 -281 255 -415 452
-36 52 -37 56 -37 145 0 51 3 96 7 99 14 15 73 5 183 -29z m2010 -1805 l0
-230 -42 3 -43 3 -3 228 -2 227 45 0 45 0 0 -231z m-2725 -4 l0 -220 -45 0
-45 0 -3 210 c-1 115 0 215 3 223 3 9 19 12 47 10 l43 -3 0 -220z m307 83
l103 -143 5 140 5 140 45 0 45 0 0 -220 0 -220 -49 0 -49 0 -92 128 c-51 71
-98 134 -104 140 -9 9 -12 -21 -10 -128 l1 -140 -46 -3 -46 -3 0 225 0 226 45
0 44 0 103 -142z m547 131 c59 -12 124 -56 145 -98 48 -92 37 -196 -28 -263
-57 -59 -96 -72 -228 -76 l-118 -4 0 226 0 226 90 0 c49 0 112 -5 139 -11z
m361 -215 l0 -225 -47 3 -48 3 -1 215 c-1 118 1 218 3 223 2 4 24 7 49 7 l44
0 0 -226z m436 6 c50 -118 88 -219 84 -223 -4 -5 -26 -7 -50 -5 -40 3 -43 5
-60 48 l-18 45 -93 3 -94 2 -22 -50 c-22 -50 -22 -50 -67 -50 -25 0 -46 3 -46
6 0 4 41 105 92 226 l92 219 45 -3 45 -3 92 -215z m387 211 c50 -12 85 -45 93
-88 7 -39 -10 -88 -39 -108 -20 -14 -20 -14 6 -26 37 -17 61 -68 53 -111 -14
-78 -90 -111 -246 -106 l-95 3 -3 210 c-1 115 0 215 2 222 6 15 168 18 229 4z
m455 -139 c44 -32 66 -77 66 -137 1 -103 -80 -172 -190 -163 -61 5 -96 26
-132 79 -20 29 -23 44 -20 96 4 67 22 96 83 135 43 27 148 22 193 -10z"/>
<path d="M1889 1088 c-1 -2 -3 -63 -4 -135 l-2 -133 48 0 c65 0 126 26 144 61
8 15 15 50 15 77 0 83 -58 132 -155 132 -25 0 -46 -1 -46 -2z"/>
<path d="M2653 1002 c-12 -31 -25 -65 -29 -74 -5 -16 1 -18 50 -18 44 0 56 3
56 16 0 15 -38 113 -49 126 -4 4 -16 -18 -28 -50z"/>
<path d="M3070 1046 c0 -41 2 -45 30 -51 16 -4 46 -1 65 5 29 9 35 17 35 39 0
39 -17 51 -77 51 l-53 0 0 -44z"/>
<path d="M3069 916 c-2 -3 -3 -25 -1 -50 l4 -46 62 0 c66 0 86 11 86 46 0 33
-37 54 -96 54 -28 0 -53 -2 -55 -4z"/>
<path d="M3495 955 c-52 -51 -16 -145 54 -145 46 0 83 37 83 85 0 75 -85 113
-137 60z"/>
</g>
</svg>
