<svg xmlns="http://www.w3.org/2000/svg" width="494" height="488" viewBox="0 0 494 488">
<g>
<path d="M 492.65 216.39 C493.00,220.58 493.45,224.00 493.65,224.00 C493.84,224.00 494.00,173.60 494.00,112.00 L 494.00 488.00 L 0.00 488.00 L 0.00 0.00 L 494.00 0.00 L 377.75 0.16 C314.99,0.25 264.95,0.47 264.95,0.65 C264.95,0.66 264.96,0.66 265.00,0.66 C299.02,4.00 320.17,9.09 345.95,20.15 C411.60,48.32 463.17,105.49 483.53,172.68 C487.71,186.47 491.76,205.88 492.65,216.39 ZM 0.15 114.75 C0.23,176.85 0.45,226.54 0.64,226.54 C0.64,226.54 0.65,226.53 0.65,226.50 C0.84,224.85 1.49,219.23 2.09,214.00 C6.07,179.27 19.27,142.89 38.74,113.00 C69.37,65.96 114.98,30.59 167.50,13.14 C187.76,6.40 204.54,3.00 229.00,0.66 C229.04,0.65 229.05,0.65 229.05,0.65 C229.05,0.46 179.01,0.25 116.25,0.16 L 0.00 0.00 ZM 0.15 373.25 L 0.00 488.00 L 113.75 487.84 C175.14,487.75 224.05,487.53 224.05,487.33 C224.05,487.33 224.04,487.32 224.00,487.32 C154.87,480.23 91.17,444.96 49.98,390.96 C23.69,356.49 6.82,315.30 2.09,274.00 C1.49,268.77 0.84,263.15 0.65,261.50 C0.65,261.47 0.64,261.46 0.64,261.46 C0.45,261.46 0.23,311.15 0.15,373.25 ZM 275.00 486.88 C270.45,487.40 312.05,487.79 380.75,487.87 L 494.00 488.00 L 493.87 375.75 C493.78,303.01 493.42,266.32 492.84,271.50 C489.49,301.17 478.76,334.69 464.35,360.50 C425.04,430.91 354.83,477.77 275.00,486.88 ZM 243.41 345.60 C248.29,346.54 254.91,346.80 264.65,346.45 C279.65,345.91 287.87,344.32 294.46,340.69 L 298.50 338.46 L 299.04 306.98 C299.42,285.01 299.97,274.59 300.85,272.50 C302.79,267.87 307.97,256.16 311.02,249.50 C317.13,236.16 318.46,231.04 318.43,221.00 C318.40,209.91 316.17,199.56 311.00,186.50 C310.57,185.40 307.69,178.15 304.61,170.40 C301.52,162.64 299.00,155.47 299.00,154.46 C299.00,153.45 298.14,151.70 297.10,150.56 C294.80,148.07 291.64,138.09 289.44,126.31 C287.05,113.56 286.75,113.00 282.27,113.00 C276.59,113.00 271.72,115.85 270.31,120.00 C268.61,124.98 268.74,143.83 270.56,155.00 C271.41,160.23 272.37,166.65 272.68,169.27 C273.00,171.89 273.64,174.27 274.10,174.56 C274.56,174.84 274.69,176.32 274.38,177.84 C274.08,179.36 274.58,183.20 275.51,186.37 C277.48,193.17 276.68,196.17 271.88,200.04 C266.44,204.43 258.26,218.23 258.24,223.08 C258.23,224.41 257.28,228.18 256.12,231.45 C254.90,234.90 253.73,241.40 253.35,246.95 L 252.69 256.50 L 246.20 263.50 C238.74,271.53 234.60,277.65 229.92,287.53 L 226.61 294.50 L 226.22 315.83 C225.87,334.73 226.02,337.36 227.50,339.00 C230.05,341.82 235.55,344.10 243.41,345.60 ZM 216.50 282.39 C218.70,284.34 220.81,285.94 221.18,285.96 C222.63,286.04 223.02,281.74 223.24,263.62 C223.38,252.36 223.87,244.54 224.48,244.07 C225.04,243.63 226.75,242.98 228.28,242.61 C234.74,241.07 237.17,229.00 232.11,223.62 C229.68,221.03 230.56,219.48 234.83,218.85 C236.63,218.58 237.56,217.34 238.87,213.50 C239.81,210.75 240.51,207.46 240.42,206.18 C240.19,202.69 237.82,198.88 235.27,197.91 C232.23,196.76 232.41,195.78 236.08,193.61 C240.27,191.14 242.99,186.33 243.00,181.41 C243.00,177.88 242.42,176.80 238.75,173.42 C236.41,171.27 233.38,169.02 232.00,168.42 L 229.50 167.32 L 233.50 165.27 C239.59,162.14 241.34,159.68 241.43,154.17 C241.49,149.82 241.14,149.07 237.64,145.99 C235.51,144.12 232.81,142.08 231.64,141.46 C230.46,140.83 226.12,138.52 222.00,136.32 C206.89,128.25 203.18,129.33 191.00,145.33 C188.81,148.21 186.19,150.36 184.00,151.08 C176.45,153.58 172.78,159.90 172.77,170.42 C172.77,173.43 172.05,176.54 170.91,178.42 C165.73,187.03 164.34,197.30 167.54,203.42 C168.64,205.54 169.02,209.14 168.92,216.56 C168.80,226.05 168.99,227.13 171.58,231.64 C173.11,234.31 176.08,238.69 178.17,241.37 C180.26,244.04 181.72,246.65 181.41,247.15 C181.09,247.66 182.45,249.86 184.42,252.04 C186.39,254.22 188.00,256.58 188.00,257.28 C188.00,257.99 191.11,261.20 194.90,264.42 C198.70,267.63 202.29,271.35 202.89,272.67 C203.50,273.99 205.90,275.92 208.24,276.96 C210.58,278.01 214.30,280.45 216.50,282.39 ZM 228.25 128.78 C230.89,132.01 231.51,128.99 232.00,110.42 C232.34,97.72 232.92,90.76 233.78,89.26 C236.31,84.83 239.80,84.00 255.92,84.00 C272.68,84.00 273.00,83.86 273.00,76.69 C273.00,74.80 273.29,71.79 273.65,70.01 C274.42,66.14 277.58,64.55 286.57,63.53 C294.89,62.59 295.93,61.75 291.79,59.31 C289.95,58.22 285.08,54.40 280.97,50.83 C271.96,42.98 249.12,25.00 248.17,25.00 C247.30,25.00 226.61,41.49 217.18,49.69 C213.16,53.19 208.11,57.22 205.95,58.65 C203.80,60.08 202.24,61.59 202.50,62.00 C202.76,62.42 206.47,63.07 210.74,63.44 C216.84,63.98 219.65,64.01 220.94,65.43 C222.04,66.64 222.03,68.86 222.01,73.28 C222.00,73.96 222.00,74.70 222.00,75.49 C222.00,81.18 222.87,91.17 223.92,97.67 C224.98,104.18 226.15,113.55 226.52,118.50 C226.90,123.45 227.67,128.08 228.25,128.78 ZM 179.67 414.33 C180.89,415.55 200.39,414.95 204.25,413.57 C212.57,410.60 218.20,403.87 219.58,395.22 C220.50,389.48 217.82,381.19 213.79,377.29 C208.40,372.07 204.53,371.00 191.03,371.00 L 179.00 371.00 L 179.00 392.33 C179.00,404.07 179.30,413.97 179.67,414.33 ZM 298.00 371.00 L 298.00 415.00 L 308.25 414.99 C325.28,414.99 330.89,412.22 331.73,403.44 C332.11,399.43 331.79,397.98 330.03,395.75 C328.83,394.24 327.21,393.00 326.43,393.00 C324.43,393.00 324.63,392.23 327.50,388.82 C331.80,383.71 330.20,374.78 324.53,372.19 C322.96,371.48 317.09,371.00 309.95,371.00 ZM 128.71 414.38 C129.11,414.77 131.24,414.96 133.46,414.80 L 137.50 414.50 L 138.50 387.73 L 143.07 393.61 C145.58,396.85 150.07,403.01 153.03,407.30 L 158.43 415.09 L 167.50 414.50 L 168.04 371.00 L 158.00 371.00 L 158.00 398.45 L 147.91 384.73 L 137.83 371.00 L 128.00 371.00 L 128.00 392.33 C128.00,404.07 128.32,413.99 128.71,414.38 ZM 245.66 414.25 C245.91,414.66 248.08,415.00 250.48,415.00 C254.71,415.00 254.88,414.87 256.52,410.58 L 258.21 406.15 L 265.86 405.82 C276.78,405.36 277.47,405.58 279.62,410.34 C281.30,414.06 281.91,414.53 285.38,414.82 C287.52,414.99 289.65,414.75 290.13,414.27 C290.86,413.54 283.51,395.07 274.80,375.75 C272.69,371.06 272.60,371.00 267.95,371.00 L 263.25 371.00 L 257.19 385.75 C253.86,393.86 249.79,403.42 248.16,407.00 C246.53,410.58 245.40,413.84 245.66,414.25 ZM 346.59 412.79 C352.12,416.03 361.28,415.55 366.24,411.77 C371.25,407.95 373.38,402.89 372.64,396.61 C371.58,387.63 366.47,383.01 356.87,382.34 C351.52,381.97 349.87,382.27 346.59,384.20 C340.33,387.89 338.50,391.12 338.50,398.50 C338.50,405.88 340.34,409.12 346.59,412.79 ZM 203.81 403.97 C201.51,405.38 198.75,405.99 194.75,406.00 L 189.00 406.00 L 189.00 380.00 L 195.05 380.00 C202.52,380.00 206.69,382.01 208.58,386.53 C211.38,393.24 209.37,400.58 203.81,403.97 ZM 229.00 371.00 L 229.00 415.00 L 233.37 415.00 C237.64,415.00 237.75,414.92 238.36,411.25 C239.15,406.44 239.16,376.21 238.37,373.25 C237.86,371.35 237.08,371.00 233.38,371.00 ZM 381.00 368.89 L 381.00 415.11 L 389.50 414.50 L 389.50 369.50 ZM 108.00 371.00 L 108.00 415.11 L 116.50 414.50 L 117.04 371.00 ZM 360.74 405.47 C357.06,408.05 352.53,407.42 349.59,403.92 C346.76,400.56 346.37,398.05 348.16,394.68 C351.50,388.41 359.49,388.17 362.63,394.24 C364.60,398.06 363.70,403.40 360.74,405.47 ZM 319.83 405.40 C318.45,406.38 315.49,407.00 312.28,407.00 L 307.00 407.00 L 307.00 396.91 L 314.25 397.21 L 321.50 397.50 L 321.81 400.65 C322.04,403.02 321.54,404.21 319.83,405.40 ZM 319.65 386.46 C318.71,387.76 316.60,388.45 312.65,388.78 L 307.00 389.25 L 307.00 378.76 L 313.08 379.20 C320.60,379.74 322.79,382.17 319.65,386.46 ZM 273.16 394.50 C273.46,396.25 272.87,396.54 268.46,396.79 C265.69,396.96 263.16,396.83 262.84,396.50 C262.16,395.83 267.18,383.04 268.13,383.02 C268.88,383.00 272.68,391.66 273.16,394.50 Z" fill="rgb(34,43,58)"/>
<path d="M 243.41 345.60 C235.55,344.10 230.05,341.82 227.50,339.00 C226.09,337.44 225.89,334.97 226.17,318.35 C226.72,323.33 228.98,323.18 235.96,322.63 C243.81,322.01 289.48,321.73 294.20,322.26 C295.69,322.43 297.26,322.93 297.70,323.37 C298.14,323.81 298.75,313.22 299.06,299.84 C299.30,289.57 299.65,281.94 300.09,277.32 C299.63,282.62 299.30,292.18 299.04,306.98 L 298.50 338.46 L 294.46 340.69 C287.87,344.32 279.65,345.91 264.65,346.45 C254.91,346.80 248.29,346.54 243.41,345.60 ZM 226.48 301.73 L 226.61 294.50 L 229.92 287.53 C232.33,282.43 234.60,278.34 237.26,274.46 C234.59,278.36 232.33,282.46 229.97,287.53 C227.51,292.79 226.87,294.76 226.48,301.73 ZM 305.66 261.45 C307.49,257.32 309.46,252.91 311.02,249.50 C309.53,252.75 307.54,257.20 305.66,261.45 Z" fill="rgb(37,154,90)"/>
<path d="M 234.53 228.52 C234.24,227.60 233.81,226.77 233.25,226.08 C232.09,224.66 227.96,222.92 221.00,220.94 C199.08,214.70 197.00,213.96 197.00,212.47 C197.00,210.29 199.06,210.60 213.62,215.00 C227.47,219.18 230.87,219.68 234.06,217.97 C236.71,216.55 239.00,211.78 239.00,207.68 C239.00,202.89 235.89,199.45 229.74,197.44 C221.76,194.83 204.62,187.96 203.58,186.96 C203.03,186.42 203.33,185.81 204.32,185.43 C205.23,185.08 211.00,186.68 217.24,189.01 C232.56,194.75 235.14,195.01 238.92,191.23 C239.49,190.67 239.99,190.09 240.44,189.50 C239.29,191.17 237.81,192.59 236.08,193.61 C232.41,195.78 232.23,196.76 235.27,197.91 C237.82,198.88 240.19,202.69 240.42,206.18 C240.51,207.46 239.81,210.75 238.87,213.50 C237.56,217.34 236.63,218.58 234.83,218.85 C230.56,219.48 229.68,221.03 232.11,223.62 C233.35,224.94 234.14,226.65 234.53,228.52 ZM 242.89 183.13 C242.96,180.74 242.10,178.42 240.28,176.38 C239.30,175.29 232.43,171.33 225.00,167.57 C210.90,160.44 209.00,159.29 209.00,157.93 C209.00,156.26 214.70,157.92 222.88,161.98 C230.31,165.67 231.57,166.01 234.03,164.99 L 234.07 164.97 C233.88,165.07 233.69,165.17 233.50,165.27 L 229.50 167.32 L 232.00 168.42 C233.38,169.02 236.41,171.27 238.75,173.42 C242.42,176.80 243.00,177.88 243.00,181.41 C243.00,181.99 242.96,182.56 242.89,183.13 ZM 274.54 175.97 C275.25,178.11 276.40,181.97 277.49,185.86 L 280.10 195.22 L 276.04 198.70 C271.35,202.71 264.65,212.05 260.76,220.00 C259.17,223.25 257.88,226.27 256.84,229.25 C257.65,226.64 258.23,224.12 258.24,223.08 C258.26,218.23 266.44,204.43 271.88,200.04 C276.68,196.17 277.48,193.17 275.51,186.37 C274.58,183.20 274.08,179.36 274.38,177.84 C274.51,177.18 274.56,176.52 274.54,175.97 ZM 216.50 282.39 C214.30,280.45 210.58,278.01 208.24,276.96 C205.90,275.92 203.50,273.99 202.89,272.67 C202.29,271.35 198.70,267.63 194.90,264.42 C191.11,261.20 188.00,257.99 188.00,257.28 C188.00,256.58 186.39,254.22 184.42,252.04 C182.45,249.86 181.09,247.66 181.41,247.15 C181.72,246.65 180.26,244.04 178.17,241.37 C176.08,238.69 173.11,234.31 171.58,231.64 C169.61,228.22 169.03,226.77 168.92,222.11 C169.03,226.77 169.66,228.19 171.85,232.08 C175.02,237.68 194.03,261.59 198.83,266.00 C204.61,271.32 212.34,277.64 216.82,280.71 C219.39,282.48 221.79,283.95 222.15,283.96 C222.24,283.97 222.32,283.92 222.39,283.81 C222.10,285.43 221.71,285.99 221.18,285.96 C220.81,285.94 218.70,284.34 216.50,282.39 ZM 223.24 263.62 C223.21,265.95 223.18,268.05 223.15,269.94 C223.08,267.13 222.95,263.99 222.76,260.62 C222.15,249.75 221.72,247.29 220.26,246.28 C215.09,242.72 215.21,242.53 222.92,241.93 C229.35,241.42 230.60,241.00 232.65,238.62 C233.19,238.00 233.63,237.28 233.99,236.50 C232.94,239.53 230.95,241.97 228.28,242.61 C226.75,242.98 225.04,243.63 224.48,244.07 C223.87,244.54 223.38,252.36 223.24,263.62 ZM 310.50 185.24 C307.55,177.86 298.36,155.43 296.30,150.59 C295.57,148.87 294.90,147.04 294.17,144.69 C295.20,147.54 296.21,149.61 297.10,150.56 C298.14,151.70 299.00,153.45 299.00,154.46 C299.00,155.47 301.52,162.64 304.61,170.40 C307.10,176.68 309.46,182.62 310.50,185.24 ZM 289.38 126.01 C288.92,124.02 288.42,121.86 287.88,119.50 L 286.99 115.64 C287.74,117.50 288.37,120.65 289.38,126.01 ZM 285.24 113.41 L 282.50 113.23 C280.47,113.09 278.52,113.36 276.79,113.96 C278.45,113.34 280.31,113.00 282.27,113.00 C283.56,113.00 284.50,113.05 285.24,113.41 ZM 272.14 165.28 C272.35,166.65 272.51,167.78 272.61,168.50 C272.91,170.69 273.53,173.37 274.01,174.48 C273.56,173.97 272.98,171.73 272.68,169.27 C272.57,168.34 272.38,166.94 272.14,165.28 ZM 241.43 154.17 C241.38,157.10 240.86,159.17 239.47,160.94 C240.75,159.13 241.39,156.91 241.43,154.19 C241.45,152.42 241.41,151.25 241.12,150.28 C241.41,151.25 241.45,152.42 241.43,154.17 ZM 256.14 231.38 C255.59,233.16 255.13,234.93 254.74,236.74 C255.16,234.66 255.63,232.82 256.12,231.45 ZM 316.06 201.97 C315.05,197.87 313.70,193.60 311.97,189.00 C313.70,193.59 315.05,197.86 316.06,201.97 Z" fill="rgb(54,49,44)"/>
<path d="M 226.48 301.73 C226.87,294.76 227.51,292.79 229.97,287.53 C232.33,282.46 234.59,278.36 237.26,274.46 C239.76,270.83 242.59,267.39 246.20,263.50 L 252.28 256.94 C252.12,259.44 252.03,261.83 252.03,264.00 C252.03,267.02 252.97,273.94 254.13,279.37 C256.50,290.53 259.77,296.37 266.28,301.09 C268.49,302.69 270.80,303.99 271.40,303.98 C275.54,303.90 287.93,295.67 290.29,291.43 C290.96,290.24 292.51,287.43 293.74,285.20 C294.97,282.96 296.81,280.54 297.82,279.82 C298.82,279.11 299.91,277.14 300.28,275.40 C300.21,275.96 300.15,276.60 300.09,277.32 L 300.09 277.32 C299.65,281.94 299.30,289.57 299.06,299.84 C298.75,313.22 298.14,323.81 297.70,323.37 C297.26,322.93 295.69,322.43 294.20,322.26 C289.48,321.73 243.81,322.01 235.96,322.63 C228.98,323.18 226.72,323.33 226.17,318.35 C226.19,317.54 226.20,316.70 226.22,315.83 ZM 253.73 243.01 C253.99,240.86 254.34,238.70 254.74,236.74 C254.97,235.65 255.23,234.57 255.52,233.50 C254.88,236.08 254.26,239.39 253.73,243.01 ZM 256.79 229.43 C256.81,229.37 256.83,229.31 256.84,229.25 C257.88,226.27 259.17,223.25 260.76,220.00 C261.36,218.78 262.03,217.52 262.74,216.25 C260.44,220.44 258.40,224.93 256.79,229.43 ZM 305.66 261.45 C305.19,262.52 304.72,263.57 304.27,264.59 C305.94,260.70 308.16,255.73 311.02,249.50 C312.45,246.38 313.61,243.71 314.57,241.32 C313.62,243.71 312.45,246.38 311.02,249.50 L 311.01 249.53 C309.52,252.78 307.53,257.22 305.66,261.45 Z" fill="rgb(87,178,89)"/>
<path d="M 268.07 0.57 L 279.00 2.03 C288.40,3.28 297.17,4.85 305.60,6.82 C293.66,4.11 280.70,2.20 265.00,0.66 C264.96,0.66 264.95,0.66 264.95,0.65 C264.95,0.63 266.03,0.60 268.07,0.57 ZM 173.90 11.09 C188.17,6.65 199.62,4.22 216.00,2.01 L 226.66 0.57 C228.23,0.60 229.05,0.62 229.05,0.65 C229.05,0.65 229.04,0.65 229.00,0.66 C207.16,2.75 191.44,5.69 173.90,11.09 ZM 7.44 303.17 C15.25,334.09 29.62,364.05 49.40,390.19 C36.44,373.18 25.68,354.39 17.56,334.16 C13.30,323.55 10.05,313.67 7.44,303.17 ZM 0.56 224.00 L 2.04 213.50 C2.37,211.14 2.71,208.84 3.07,206.60 C2.70,209.07 2.37,211.54 2.09,214.00 C1.49,219.23 0.84,224.85 0.65,226.50 C0.65,226.53 0.64,226.54 0.64,226.54 C0.61,226.54 0.59,225.66 0.56,224.00 ZM 0.56 264.00 C0.59,262.34 0.61,261.46 0.64,261.46 C0.64,261.46 0.65,261.47 0.65,261.50 C0.84,263.15 1.49,268.77 2.09,274.00 C2.35,276.30 2.65,278.59 2.99,280.89 C2.66,278.81 2.34,276.68 2.04,274.50 ZM 5.81 191.87 C8.66,178.64 12.36,166.78 17.56,153.84 C20.69,146.04 24.23,138.42 28.16,131.02 C18.08,150.14 10.42,170.99 5.81,191.87 ZM 127.48 457.27 C156.94,473.42 189.80,483.81 223.99,487.32 C189.47,483.78 156.73,473.34 127.48,457.27 ZM 48.61 98.92 C54.63,90.93 61.14,83.30 68.08,76.09 C61.16,83.28 54.66,90.90 48.61,98.92 Z" fill="rgb(111,111,112)"/>
<path d="M 0.11 374.75 L 0.21 261.50 L 2.04 274.50 C5.28,297.55 9.72,314.62 17.56,334.16 C51.42,418.55 131.31,477.82 224.00,487.32 C225.93,487.52 176.31,487.75 113.75,487.84 L 0.00 488.00 L 0.11 374.75 ZM 275.00 486.88 C354.83,477.77 425.04,430.91 464.35,360.50 C478.76,334.69 489.49,301.17 492.84,271.50 C493.42,266.32 493.78,303.01 493.87,375.75 L 494.00 488.00 L 380.75 487.87 C312.05,487.79 270.45,487.40 275.00,486.88 ZM 108.00 393.06 L 108.00 371.00 L 112.52 371.00 L 117.04 371.00 L 116.77 392.75 L 116.50 414.50 L 112.25 414.81 L 108.00 415.11 L 108.00 393.06 ZM 128.71 414.38 C128.32,413.99 128.00,404.07 128.00,392.33 L 128.00 371.00 L 132.91 371.00 L 137.83 371.00 L 147.91 384.73 L 158.00 398.45 L 158.00 384.73 L 158.00 371.00 L 163.02 371.00 L 168.04 371.00 L 167.77 392.75 L 167.50 414.50 L 162.97 414.80 L 158.43 415.09 L 153.03 407.30 C150.07,403.01 145.58,396.85 143.07,393.61 L 138.50 387.73 L 138.00 401.11 L 137.50 414.50 L 133.46 414.80 C131.24,414.96 129.11,414.77 128.71,414.38 ZM 179.67 414.33 C179.30,413.97 179.00,404.07 179.00,392.33 L 179.00 371.00 L 191.03 371.00 C204.53,371.00 208.40,372.07 213.79,377.29 C217.82,381.19 220.50,389.48 219.58,395.22 C218.20,403.87 212.57,410.60 204.25,413.57 C200.39,414.95 180.89,415.55 179.67,414.33 ZM 203.81 403.97 C209.37,400.58 211.38,393.24 208.58,386.53 C206.69,382.01 202.52,380.00 195.05,380.00 L 189.00 380.00 L 189.00 393.00 L 189.00 406.00 L 194.75 406.00 C198.75,405.99 201.51,405.38 203.81,403.97 ZM 229.00 393.00 L 229.00 371.00 L 233.38 371.00 C237.08,371.00 237.86,371.35 238.37,373.25 C239.16,376.21 239.15,406.44 238.36,411.25 C237.75,414.92 237.64,415.00 233.37,415.00 L 229.00 415.00 L 229.00 393.00 ZM 245.66 414.25 C245.40,413.84 246.53,410.58 248.16,407.00 C249.79,403.42 253.86,393.86 257.19,385.75 L 263.25 371.00 L 267.95 371.00 C272.60,371.00 272.69,371.06 274.80,375.75 C283.51,395.07 290.86,413.54 290.13,414.27 C289.65,414.75 287.52,414.99 285.38,414.82 C281.91,414.53 281.30,414.06 279.62,410.34 C277.47,405.58 276.78,405.36 265.86,405.82 L 258.21 406.15 L 256.52 410.58 C254.88,414.87 254.71,415.00 250.48,415.00 C248.08,415.00 245.91,414.66 245.66,414.25 ZM 273.16 394.50 C272.68,391.66 268.88,383.00 268.13,383.02 C267.18,383.04 262.16,395.83 262.84,396.50 C263.16,396.83 265.69,396.96 268.46,396.79 C272.87,396.54 273.46,396.25 273.16,394.50 ZM 298.00 393.00 L 298.00 371.00 L 309.95 371.00 C317.09,371.00 322.96,371.48 324.53,372.19 C330.20,374.78 331.80,383.71 327.50,388.82 C324.63,392.23 324.43,393.00 326.43,393.00 C327.21,393.00 328.83,394.24 330.03,395.75 C331.79,397.98 332.11,399.43 331.73,403.44 C330.89,412.22 325.28,414.99 308.25,414.99 L 298.00 415.00 L 298.00 393.00 ZM 319.83 405.40 C321.54,404.21 322.04,403.02 321.81,400.65 L 321.50 397.50 L 314.25 397.21 L 307.00 396.91 L 307.00 401.96 L 307.00 407.00 L 312.28 407.00 C315.49,407.00 318.45,406.38 319.83,405.40 ZM 319.65 386.46 C322.79,382.17 320.60,379.74 313.08,379.20 L 307.00 378.76 L 307.00 384.00 L 307.00 389.25 L 312.65 388.78 C316.60,388.45 318.71,387.76 319.65,386.46 ZM 346.59 412.79 C340.34,409.12 338.50,405.88 338.50,398.50 C338.50,391.12 340.33,387.89 346.59,384.20 C349.87,382.27 351.52,381.97 356.87,382.34 C366.47,383.01 371.58,387.63 372.64,396.61 C373.38,402.89 371.25,407.95 366.24,411.77 C361.28,415.55 352.12,416.03 346.59,412.79 ZM 360.74 405.47 C363.70,403.40 364.60,398.06 362.63,394.24 C359.49,388.17 351.50,388.41 348.16,394.68 C346.37,398.05 346.76,400.56 349.59,403.92 C352.53,407.42 357.06,408.05 360.74,405.47 ZM 381.00 392.00 L 381.00 368.89 L 385.25 369.19 L 389.50 369.50 L 389.50 392.00 L 389.50 414.50 L 385.25 414.81 L 381.00 415.11 L 381.00 392.00 ZM 266.28 301.09 C259.77,296.37 256.50,290.53 254.13,279.37 C252.97,273.94 252.03,267.02 252.03,264.00 C252.04,253.44 254.08,237.45 256.24,231.00 C260.56,218.13 268.57,205.09 276.13,198.62 L 280.10 195.22 L 277.49 185.86 C276.05,180.71 274.49,175.60 274.01,174.50 C273.54,173.40 272.91,170.70 272.61,168.50 C272.31,166.30 271.38,160.23 270.54,155.00 C268.74,143.79 268.62,124.96 270.31,120.00 C271.80,115.63 276.82,112.84 282.50,113.23 L 286.50 113.50 L 287.88 119.50 C292.34,138.98 294.05,145.29 296.30,150.59 C298.50,155.75 308.80,180.92 311.00,186.50 C316.18,199.62 318.40,209.91 318.43,221.00 C318.46,231.04 317.12,236.19 311.02,249.50 C304.07,264.65 300.89,272.30 300.30,275.28 C299.96,277.05 298.84,279.09 297.82,279.82 C296.81,280.54 294.97,282.96 293.74,285.20 C292.51,287.43 290.96,290.24 290.29,291.43 C287.93,295.67 275.54,303.90 271.40,303.98 C270.80,303.99 268.49,302.69 266.28,301.09 ZM 216.82 280.71 C212.34,277.64 204.61,271.32 198.83,266.00 C194.03,261.59 175.02,237.68 171.85,232.08 C168.96,226.95 168.80,226.11 168.92,216.50 C169.02,209.13 168.64,205.54 167.54,203.42 C164.34,197.30 165.73,187.03 170.91,178.42 C172.05,176.54 172.77,173.43 172.77,170.42 C172.78,159.90 176.45,153.58 184.00,151.08 C186.19,150.36 188.81,148.21 191.00,145.33 C203.18,129.33 206.89,128.25 222.00,136.32 C226.12,138.52 230.46,140.83 231.64,141.46 C232.81,142.08 235.51,144.12 237.64,145.99 C241.15,149.07 241.49,149.82 241.43,154.19 C241.35,159.50 239.00,162.93 234.03,164.99 C231.57,166.01 230.31,165.67 222.88,161.98 C214.70,157.92 209.00,156.26 209.00,157.93 C209.00,159.29 210.90,160.44 225.00,167.57 C232.43,171.33 239.30,175.29 240.28,176.38 C244.20,180.76 243.68,186.48 238.92,191.23 C235.14,195.01 232.56,194.75 217.24,189.01 C211.00,186.68 205.23,185.08 204.32,185.43 C203.33,185.81 203.03,186.42 203.58,186.96 C204.62,187.96 221.76,194.83 229.74,197.44 C235.89,199.45 239.00,202.89 239.00,207.68 C239.00,211.78 236.71,216.55 234.06,217.97 C230.87,219.68 227.47,219.18 213.62,215.00 C199.06,210.60 197.00,210.29 197.00,212.47 C197.00,213.96 199.08,214.70 221.00,220.94 C227.96,222.92 232.09,224.66 233.25,226.08 C235.81,229.21 235.52,235.29 232.65,238.62 C230.60,241.00 229.35,241.42 222.92,241.93 C215.21,242.53 215.09,242.72 220.26,246.28 C221.72,247.29 222.15,249.75 222.76,260.62 C223.53,274.27 223.28,284.03 222.15,283.96 C221.79,283.95 219.39,282.48 216.82,280.71 ZM 0.11 113.25 L 0.00 0.00 L 114.75 0.10 L 229.50 0.19 L 216.00 2.01 C197.25,4.53 184.96,7.36 167.50,13.15 C99.85,35.58 43.97,88.02 17.56,153.84 C9.72,173.38 5.28,190.45 2.04,213.50 L 0.21 226.50 L 0.11 113.25 ZM 492.65 216.39 C491.76,205.88 487.71,186.47 483.53,172.68 C463.17,105.49 411.60,48.32 345.95,20.15 C324.35,10.88 303.91,5.35 279.00,2.03 L 265.50 0.23 L 379.75 0.11 L 494.00 0.00 L 494.00 112.00 C494.00,173.60 493.84,224.00 493.65,224.00 C493.45,224.00 493.00,220.58 492.65,216.39 ZM 228.25 128.78 C227.67,128.08 226.90,123.45 226.52,118.50 C226.15,113.55 224.98,104.18 223.92,97.67 C222.87,91.17 222.00,81.18 222.00,75.49 C222.00,63.59 222.86,64.51 210.74,63.44 C206.47,63.07 202.76,62.42 202.50,62.00 C202.24,61.59 203.80,60.08 205.95,58.65 C208.11,57.22 213.16,53.19 217.18,49.69 C226.61,41.49 247.30,25.00 248.17,25.00 C249.12,25.00 271.96,42.98 280.97,50.83 C285.08,54.40 289.95,58.22 291.79,59.31 C295.93,61.75 294.89,62.59 286.57,63.53 C277.58,64.55 274.42,66.14 273.65,70.01 C273.29,71.79 273.00,74.80 273.00,76.69 C273.00,83.86 272.68,84.00 255.92,84.00 C239.80,84.00 236.31,84.83 233.78,89.26 C232.92,90.76 232.34,97.72 232.00,110.42 C231.51,128.99 230.89,132.01 228.25,128.78 Z" fill="rgb(107,73,31)"/>
<path d="M 0.11 374.75 L 0.21 261.50 L 2.04 274.50 C5.28,297.55 9.72,314.62 17.56,334.16 C51.42,418.55 131.31,477.82 224.00,487.32 C225.93,487.52 176.31,487.75 113.75,487.84 L 0.00 488.00 L 0.11 374.75 ZM 275.00 486.88 C354.83,477.77 425.04,430.91 464.35,360.50 C478.76,334.69 489.49,301.17 492.84,271.50 C493.42,266.32 493.78,303.01 493.87,375.75 L 494.00 488.00 L 380.75 487.87 C312.05,487.79 270.45,487.40 275.00,486.88 ZM 108.00 393.06 L 108.00 371.00 L 112.52 371.00 L 117.04 371.00 L 116.77 392.75 L 116.50 414.50 L 112.25 414.81 L 108.00 415.11 L 108.00 393.06 ZM 128.71 414.38 C128.32,413.99 128.00,404.07 128.00,392.33 L 128.00 371.00 L 132.91 371.00 L 137.83 371.00 L 147.91 384.73 L 158.00 398.45 L 158.00 384.73 L 158.00 371.00 L 163.02 371.00 L 168.04 371.00 L 167.77 392.75 L 167.50 414.50 L 162.97 414.80 L 158.43 415.09 L 153.03 407.30 C150.07,403.01 145.58,396.85 143.07,393.61 L 138.50 387.73 L 138.00 401.11 L 137.50 414.50 L 133.46 414.80 C131.24,414.96 129.11,414.77 128.71,414.38 ZM 179.67 414.33 C179.30,413.97 179.00,404.07 179.00,392.33 L 179.00 371.00 L 191.03 371.00 C204.53,371.00 208.40,372.07 213.79,377.29 C217.82,381.19 220.50,389.48 219.58,395.22 C218.20,403.87 212.57,410.60 204.25,413.57 C200.39,414.95 180.89,415.55 179.67,414.33 ZM 203.81 403.97 C209.37,400.58 211.38,393.24 208.58,386.53 C206.69,382.01 202.52,380.00 195.05,380.00 L 189.00 380.00 L 189.00 393.00 L 189.00 406.00 L 194.75 406.00 C198.75,405.99 201.51,405.38 203.81,403.97 ZM 229.00 393.00 L 229.00 371.00 L 233.38 371.00 C237.08,371.00 237.86,371.35 238.37,373.25 C239.16,376.21 239.15,406.44 238.36,411.25 C237.75,414.92 237.64,415.00 233.37,415.00 L 229.00 415.00 L 229.00 393.00 ZM 245.66 414.25 C245.40,413.84 246.53,410.58 248.16,407.00 C249.79,403.42 253.86,393.86 257.19,385.75 L 263.25 371.00 L 267.95 371.00 C272.60,371.00 272.69,371.06 274.80,375.75 C283.51,395.07 290.86,413.54 290.13,414.27 C289.65,414.75 287.52,414.99 285.38,414.82 C281.91,414.53 281.30,414.06 279.62,410.34 C277.47,405.58 276.78,405.36 265.86,405.82 L 258.21 406.15 L 256.52 410.58 C254.88,414.87 254.71,415.00 250.48,415.00 C248.08,415.00 245.91,414.66 245.66,414.25 ZM 273.16 394.50 C272.68,391.66 268.88,383.00 268.13,383.02 C267.18,383.04 262.16,395.83 262.84,396.50 C263.16,396.83 265.69,396.96 268.46,396.79 C272.87,396.54 273.46,396.25 273.16,394.50 ZM 298.00 393.00 L 298.00 371.00 L 309.95 371.00 C317.09,371.00 322.96,371.48 324.53,372.19 C330.20,374.78 331.80,383.71 327.50,388.82 C324.63,392.23 324.43,393.00 326.43,393.00 C327.21,393.00 328.83,394.24 330.03,395.75 C331.79,397.98 332.11,399.43 331.73,403.44 C330.89,412.22 325.28,414.99 308.25,414.99 L 298.00 415.00 L 298.00 393.00 ZM 319.83 405.40 C321.54,404.21 322.04,403.02 321.81,400.65 L 321.50 397.50 L 314.25 397.21 L 307.00 396.91 L 307.00 401.96 L 307.00 407.00 L 312.28 407.00 C315.49,407.00 318.45,406.38 319.83,405.40 ZM 319.65 386.46 C322.79,382.17 320.60,379.74 313.08,379.20 L 307.00 378.76 L 307.00 384.00 L 307.00 389.25 L 312.65 388.78 C316.60,388.45 318.71,387.76 319.65,386.46 ZM 346.59 412.79 C340.34,409.12 338.50,405.88 338.50,398.50 C338.50,391.12 340.33,387.89 346.59,384.20 C349.87,382.27 351.52,381.97 356.87,382.34 C366.47,383.01 371.58,387.63 372.64,396.61 C373.38,402.89 371.25,407.95 366.24,411.77 C361.28,415.55 352.12,416.03 346.59,412.79 ZM 360.74 405.47 C363.70,403.40 364.60,398.06 362.63,394.24 C359.49,388.17 351.50,388.41 348.16,394.68 C346.37,398.05 346.76,400.56 349.59,403.92 C352.53,407.42 357.06,408.05 360.74,405.47 ZM 381.00 392.00 L 381.00 368.89 L 385.25 369.19 L 389.50 369.50 L 389.50 392.00 L 389.50 414.50 L 385.25 414.81 L 381.00 415.11 L 381.00 392.00 ZM 266.28 301.09 C259.77,296.37 256.50,290.53 254.13,279.37 C252.97,273.94 252.03,267.02 252.03,264.00 C252.04,253.44 254.08,237.45 256.24,231.00 C260.56,218.13 268.57,205.09 276.13,198.62 L 280.10 195.22 L 277.49 185.86 C276.05,180.71 274.49,175.60 274.01,174.50 C273.54,173.40 272.91,170.70 272.61,168.50 C272.31,166.30 271.38,160.23 270.54,155.00 C268.74,143.79 268.62,124.96 270.31,120.00 C271.80,115.63 276.82,112.84 282.50,113.23 L 286.50 113.50 L 287.88 119.50 C292.34,138.98 294.05,145.29 296.30,150.59 C298.50,155.75 308.80,180.92 311.00,186.50 C316.18,199.62 318.40,209.91 318.43,221.00 C318.46,231.04 317.12,236.19 311.02,249.50 C304.07,264.65 300.89,272.30 300.30,275.28 C299.96,277.05 298.84,279.09 297.82,279.82 C296.81,280.54 294.97,282.96 293.74,285.20 C292.51,287.43 290.96,290.24 290.29,291.43 C287.93,295.67 275.54,303.90 271.40,303.98 C270.80,303.99 268.49,302.69 266.28,301.09 ZM 216.82 280.71 C212.34,277.64 204.61,271.32 198.83,266.00 C194.03,261.59 175.02,237.68 171.85,232.08 C168.96,226.95 168.80,226.11 168.92,216.50 C169.02,209.13 168.64,205.54 167.54,203.42 C164.34,197.30 165.73,187.03 170.91,178.42 C172.05,176.54 172.77,173.43 172.77,170.42 C172.78,159.90 176.45,153.58 184.00,151.08 C186.19,150.36 188.81,148.21 191.00,145.33 C203.18,129.33 206.89,128.25 222.00,136.32 C226.12,138.52 230.46,140.83 231.64,141.46 C232.81,142.08 235.51,144.12 237.64,145.99 C241.15,149.07 241.49,149.82 241.43,154.19 C241.35,159.51 238.99,162.93 234.00,165.00 C231.47,166.05 230.15,165.63 220.26,160.68 C202.40,151.73 199.26,150.54 197.43,152.06 C196.09,153.17 198.90,154.84 217.16,163.79 C228.87,169.52 239.26,175.15 240.25,176.29 C244.16,180.80 243.69,186.46 239.03,191.13 C235.60,194.56 232.51,194.77 225.52,192.04 C222.76,190.97 214.75,187.82 207.71,185.04 C193.88,179.59 190.65,178.94 191.19,181.74 C191.42,182.95 195.01,184.74 203.01,187.65 C209.33,189.94 219.00,193.45 224.50,195.44 C235.83,199.54 239.00,202.21 239.00,207.61 C239.00,211.77 236.72,216.54 234.06,217.97 C230.83,219.70 227.05,219.12 213.50,214.87 C182.70,205.20 179.47,204.47 180.60,207.41 C181.38,209.42 186.00,210.97 221.00,220.94 C227.96,222.92 232.09,224.66 233.25,226.08 C235.76,229.16 235.52,235.29 232.75,238.51 C229.20,242.63 224.38,242.73 209.42,238.97 C194.76,235.29 189.00,234.08 189.00,234.68 C189.00,234.91 190.19,236.19 191.64,237.54 C193.09,238.88 196.12,242.79 198.39,246.23 C202.96,253.18 207.04,255.97 215.66,258.04 C218.71,258.77 221.35,259.85 221.53,260.43 C222.19,262.62 222.73,284.00 222.13,283.96 C221.78,283.95 219.39,282.48 216.82,280.71 ZM 0.11 113.25 L 0.00 0.00 L 114.75 0.10 L 229.50 0.19 L 216.00 2.01 C197.25,4.53 184.96,7.36 167.50,13.15 C99.85,35.58 43.97,88.02 17.56,153.84 C9.72,173.38 5.28,190.45 2.04,213.50 L 0.21 226.50 L 0.11 113.25 ZM 492.65 216.39 C491.76,205.88 487.71,186.47 483.53,172.68 C463.17,105.49 411.60,48.32 345.95,20.15 C324.35,10.88 303.91,5.35 279.00,2.03 L 265.50 0.23 L 379.75 0.11 L 494.00 0.00 L 494.00 112.00 C494.00,173.60 493.84,224.00 493.65,224.00 C493.45,224.00 493.00,220.58 492.65,216.39 ZM 228.25 128.78 C227.67,128.08 226.90,123.45 226.52,118.50 C226.15,113.55 224.98,104.18 223.92,97.67 C222.87,91.17 222.00,81.18 222.00,75.49 C222.00,63.59 222.86,64.51 210.74,63.44 C206.47,63.07 202.76,62.42 202.50,62.00 C202.24,61.59 203.80,60.08 205.95,58.65 C208.11,57.22 213.16,53.19 217.18,49.69 C226.61,41.49 247.30,25.00 248.17,25.00 C249.12,25.00 271.96,42.98 280.97,50.83 C285.08,54.40 289.95,58.22 291.79,59.31 C295.93,61.75 294.89,62.59 286.57,63.53 C277.58,64.55 274.42,66.14 273.65,70.01 C273.29,71.79 273.00,74.80 273.00,76.69 C273.00,83.86 272.68,84.00 255.92,84.00 C239.80,84.00 236.31,84.83 233.78,89.26 C232.92,90.76 232.34,97.72 232.00,110.42 C231.51,128.99 230.89,132.01 228.25,128.78 Z" fill="rgb(152,157,164)"/>
<path d="M 0.00 376.00 C0.00,314.40 0.17,264.00 0.38,264.00 C0.58,264.00 1.30,268.39 1.97,273.75 C16.06,387.06 107.93,475.42 224.00,487.32 C225.93,487.52 176.31,487.75 113.75,487.84 L 0.00 488.00 L 0.00 376.00 ZM 275.00 486.88 C354.83,477.77 425.04,430.91 464.35,360.50 C478.76,334.69 489.49,301.17 492.84,271.50 C493.42,266.32 493.78,303.01 493.87,375.75 L 494.00 488.00 L 380.75 487.87 C312.05,487.79 270.45,487.40 275.00,486.88 ZM 108.00 393.06 L 108.00 371.00 L 112.52 371.00 L 117.04 371.00 L 116.77 392.75 L 116.50 414.50 L 112.25 414.81 L 108.00 415.11 L 108.00 393.06 ZM 128.71 414.38 C128.32,413.99 128.00,404.07 128.00,392.33 L 128.00 371.00 L 132.91 371.00 L 137.83 371.00 L 147.91 384.73 L 158.00 398.45 L 158.00 384.73 L 158.00 371.00 L 163.02 371.00 L 168.04 371.00 L 167.77 392.75 L 167.50 414.50 L 162.97 414.80 L 158.43 415.09 L 153.03 407.30 C150.07,403.01 145.58,396.85 143.07,393.61 L 138.50 387.73 L 138.00 401.11 L 137.50 414.50 L 133.46 414.80 C131.24,414.96 129.11,414.77 128.71,414.38 ZM 179.67 414.33 C179.30,413.97 179.00,404.07 179.00,392.33 L 179.00 371.00 L 191.03 371.00 C204.53,371.00 208.40,372.07 213.79,377.29 C217.82,381.19 220.50,389.48 219.58,395.22 C218.20,403.87 212.57,410.60 204.25,413.57 C200.39,414.95 180.89,415.55 179.67,414.33 ZM 203.81 403.97 C209.37,400.58 211.38,393.24 208.58,386.53 C206.69,382.01 202.52,380.00 195.05,380.00 L 189.00 380.00 L 189.00 393.00 L 189.00 406.00 L 194.75 406.00 C198.75,405.99 201.51,405.38 203.81,403.97 ZM 229.00 393.00 L 229.00 371.00 L 233.38 371.00 C237.08,371.00 237.86,371.35 238.37,373.25 C239.16,376.21 239.15,406.44 238.36,411.25 C237.75,414.92 237.64,415.00 233.37,415.00 L 229.00 415.00 L 229.00 393.00 ZM 245.66 414.25 C245.40,413.84 246.53,410.58 248.16,407.00 C249.79,403.42 253.86,393.86 257.19,385.75 L 263.25 371.00 L 267.95 371.00 C272.60,371.00 272.69,371.06 274.80,375.75 C283.51,395.07 290.86,413.54 290.13,414.27 C289.65,414.75 287.52,414.99 285.38,414.82 C281.91,414.53 281.30,414.06 279.62,410.34 C277.47,405.58 276.78,405.36 265.86,405.82 L 258.21 406.15 L 256.52 410.58 C254.88,414.87 254.71,415.00 250.48,415.00 C248.08,415.00 245.91,414.66 245.66,414.25 ZM 273.16 394.50 C272.68,391.66 268.88,383.00 268.13,383.02 C267.18,383.04 262.16,395.83 262.84,396.50 C263.16,396.83 265.69,396.96 268.46,396.79 C272.87,396.54 273.46,396.25 273.16,394.50 ZM 298.00 393.00 L 298.00 371.00 L 309.95 371.00 C317.09,371.00 322.96,371.48 324.53,372.19 C330.20,374.78 331.80,383.71 327.50,388.82 C324.63,392.23 324.43,393.00 326.43,393.00 C327.21,393.00 328.83,394.24 330.03,395.75 C331.79,397.98 332.11,399.43 331.73,403.44 C330.89,412.22 325.28,414.99 308.25,414.99 L 298.00 415.00 L 298.00 393.00 ZM 319.83 405.40 C321.54,404.21 322.04,403.02 321.81,400.65 L 321.50 397.50 L 314.25 397.21 L 307.00 396.91 L 307.00 401.96 L 307.00 407.00 L 312.28 407.00 C315.49,407.00 318.45,406.38 319.83,405.40 ZM 319.65 386.46 C322.79,382.17 320.60,379.74 313.08,379.20 L 307.00 378.76 L 307.00 384.00 L 307.00 389.25 L 312.65 388.78 C316.60,388.45 318.71,387.76 319.65,386.46 ZM 346.59 412.79 C340.34,409.12 338.50,405.88 338.50,398.50 C338.50,391.12 340.33,387.89 346.59,384.20 C349.87,382.27 351.52,381.97 356.87,382.34 C366.47,383.01 371.58,387.63 372.64,396.61 C373.38,402.89 371.25,407.95 366.24,411.77 C361.28,415.55 352.12,416.03 346.59,412.79 ZM 360.74 405.47 C363.70,403.40 364.60,398.06 362.63,394.24 C359.49,388.17 351.50,388.41 348.16,394.68 C346.37,398.05 346.76,400.56 349.59,403.92 C352.53,407.42 357.06,408.05 360.74,405.47 ZM 381.00 392.00 L 381.00 368.89 L 385.25 369.19 L 389.50 369.50 L 389.50 392.00 L 389.50 414.50 L 385.25 414.81 L 381.00 415.11 L 381.00 392.00 ZM 266.28 301.09 C259.77,296.37 256.50,290.53 254.13,279.37 C252.97,273.94 252.03,267.02 252.03,264.00 C252.04,253.44 254.08,237.45 256.24,231.00 C260.56,218.13 268.57,205.09 276.13,198.62 L 280.10 195.22 L 277.49 185.86 C276.05,180.71 274.49,175.60 274.01,174.50 C273.54,173.40 272.91,170.70 272.61,168.50 C272.31,166.30 271.38,160.23 270.54,155.00 C268.74,143.79 268.62,124.96 270.31,120.00 C271.80,115.63 276.82,112.84 282.50,113.23 L 286.50 113.50 L 287.88 119.50 C292.34,138.98 294.05,145.29 296.30,150.59 C298.50,155.75 308.80,180.92 311.00,186.50 C316.18,199.62 318.40,209.91 318.43,221.00 C318.46,231.04 317.12,236.19 311.02,249.50 C304.07,264.65 300.89,272.30 300.30,275.28 C299.96,277.05 298.84,279.09 297.82,279.82 C296.81,280.54 294.97,282.96 293.74,285.20 C292.51,287.43 290.96,290.24 290.29,291.43 C287.93,295.67 275.54,303.90 271.40,303.98 C270.80,303.99 268.49,302.69 266.28,301.09 ZM 216.82 280.71 C212.34,277.64 204.61,271.32 198.83,266.00 C194.03,261.59 175.02,237.68 171.85,232.08 C168.96,226.95 168.80,226.11 168.92,216.50 C169.02,209.13 168.64,205.54 167.54,203.42 C164.34,197.30 165.73,187.03 170.91,178.42 C172.05,176.54 172.77,173.43 172.77,170.42 C172.78,159.90 176.45,153.58 184.00,151.08 C186.19,150.36 188.81,148.21 191.00,145.33 C203.18,129.33 206.89,128.25 222.00,136.32 C226.12,138.52 230.46,140.83 231.64,141.46 C232.81,142.08 235.51,144.12 237.64,145.99 C241.15,149.07 241.49,149.82 241.43,154.19 C241.35,159.51 238.99,162.93 234.00,165.00 C231.47,166.05 230.15,165.63 220.26,160.68 C202.40,151.73 199.26,150.54 197.43,152.06 C196.09,153.17 198.90,154.84 217.16,163.79 C228.87,169.52 239.26,175.15 240.25,176.29 C244.16,180.80 243.69,186.46 239.03,191.13 C235.60,194.56 232.51,194.77 225.52,192.04 C222.76,190.97 214.75,187.82 207.71,185.04 C193.88,179.59 190.65,178.94 191.19,181.74 C191.42,182.95 195.01,184.74 203.01,187.65 C209.33,189.94 219.00,193.45 224.50,195.44 C235.83,199.54 239.00,202.21 239.00,207.61 C239.00,211.77 236.72,216.54 234.06,217.97 C230.83,219.70 227.05,219.12 213.50,214.87 C182.70,205.20 179.47,204.47 180.60,207.41 C181.38,209.42 186.00,210.97 221.00,220.94 C227.96,222.92 232.09,224.66 233.25,226.08 C235.76,229.16 235.52,235.29 232.75,238.51 C229.20,242.63 224.38,242.73 209.42,238.97 C194.76,235.29 189.00,234.08 189.00,234.68 C189.00,234.91 190.19,236.19 191.64,237.54 C193.09,238.88 196.12,242.79 198.39,246.23 C202.96,253.18 207.04,255.97 215.66,258.04 C218.71,258.77 221.35,259.85 221.53,260.43 C222.19,262.62 222.73,284.00 222.13,283.96 C221.78,283.95 219.39,282.48 216.82,280.71 ZM 0.00 112.00 L 0.00 0.00 L 113.00 0.00 C175.15,0.00 226.00,0.17 226.00,0.38 C226.00,0.58 221.61,1.29 216.25,1.96 C173.73,7.21 132.07,24.03 97.65,49.86 C44.57,89.67 10.09,148.91 1.97,214.25 C1.30,219.61 0.58,224.00 0.38,224.00 C0.17,224.00 0.00,173.60 0.00,112.00 ZM 492.65 216.39 C491.76,205.88 487.71,186.47 483.53,172.68 C463.17,105.49 411.60,48.32 345.95,20.15 C324.69,11.03 300.78,4.59 278.50,1.98 C273.00,1.34 268.31,0.63 268.08,0.41 C267.85,0.18 318.59,-0.00 380.83,-0.00 L 494.00 0.00 L 494.00 112.00 C494.00,173.60 493.84,224.00 493.65,224.00 C493.45,224.00 493.00,220.58 492.65,216.39 ZM 228.25 128.78 C227.67,128.08 226.90,123.45 226.52,118.50 C226.15,113.55 224.98,104.18 223.92,97.67 C222.87,91.17 222.00,81.18 222.00,75.49 C222.00,63.59 222.86,64.51 210.74,63.44 C206.47,63.07 202.76,62.42 202.50,62.00 C202.24,61.59 203.80,60.08 205.95,58.65 C208.11,57.22 213.16,53.19 217.18,49.69 C226.61,41.49 247.30,25.00 248.17,25.00 C249.12,25.00 271.96,42.98 280.97,50.83 C285.08,54.40 289.95,58.22 291.79,59.31 C295.93,61.75 294.89,62.59 286.57,63.53 C277.58,64.55 274.42,66.14 273.65,70.01 C273.29,71.79 273.00,74.80 273.00,76.69 C273.00,83.86 272.68,84.00 255.92,84.00 C239.80,84.00 236.31,84.83 233.78,89.26 C232.92,90.76 232.34,97.72 232.00,110.42 C231.51,128.99 230.89,132.01 228.25,128.78 Z" fill="rgb(168,110,39)"/>
<path d="M 0.00 376.00 C0.00,314.40 0.17,264.00 0.38,264.00 C0.58,264.00 1.30,268.39 1.97,273.75 C16.06,387.06 107.93,475.42 224.00,487.32 C225.93,487.52 176.31,487.75 113.75,487.84 L 0.00 488.00 L 0.00 376.00 ZM 275.00 486.88 C354.83,477.77 425.04,430.91 464.35,360.50 C478.76,334.69 489.49,301.17 492.84,271.50 C493.42,266.32 493.78,303.01 493.87,375.75 L 494.00 488.00 L 380.75 487.87 C312.05,487.79 270.45,487.40 275.00,486.88 ZM 108.00 393.06 L 108.00 371.00 L 112.52 371.00 L 117.04 371.00 L 116.77 392.75 L 116.50 414.50 L 112.25 414.81 L 108.00 415.11 L 108.00 393.06 ZM 128.71 414.38 C128.32,413.99 128.00,404.07 128.00,392.33 L 128.00 371.00 L 132.91 371.00 L 137.83 371.00 L 147.91 384.73 L 158.00 398.45 L 158.00 384.73 L 158.00 371.00 L 163.02 371.00 L 168.04 371.00 L 167.77 392.75 L 167.50 414.50 L 162.97 414.80 L 158.43 415.09 L 153.03 407.30 C150.07,403.01 145.58,396.85 143.07,393.61 L 138.50 387.73 L 138.00 401.11 L 137.50 414.50 L 133.46 414.80 C131.24,414.96 129.11,414.77 128.71,414.38 ZM 179.67 414.33 C179.30,413.97 179.00,404.07 179.00,392.33 L 179.00 371.00 L 191.03 371.00 C204.53,371.00 208.40,372.07 213.79,377.29 C217.82,381.19 220.50,389.48 219.58,395.22 C218.20,403.87 212.57,410.60 204.25,413.57 C200.39,414.95 180.89,415.55 179.67,414.33 ZM 203.81 403.97 C209.37,400.58 211.38,393.24 208.58,386.53 C206.69,382.01 202.52,380.00 195.05,380.00 L 189.00 380.00 L 189.00 393.00 L 189.00 406.00 L 194.75 406.00 C198.75,405.99 201.51,405.38 203.81,403.97 ZM 229.00 393.00 L 229.00 371.00 L 233.38 371.00 C237.08,371.00 237.86,371.35 238.37,373.25 C239.16,376.21 239.15,406.44 238.36,411.25 C237.75,414.92 237.64,415.00 233.37,415.00 L 229.00 415.00 L 229.00 393.00 ZM 245.66 414.25 C245.40,413.84 246.53,410.58 248.16,407.00 C249.79,403.42 253.86,393.86 257.19,385.75 L 263.25 371.00 L 267.95 371.00 C272.60,371.00 272.69,371.06 274.80,375.75 C283.51,395.07 290.86,413.54 290.13,414.27 C289.65,414.75 287.52,414.99 285.38,414.82 C281.91,414.53 281.30,414.06 279.62,410.34 C277.47,405.58 276.78,405.36 265.86,405.82 L 258.21 406.15 L 256.52 410.58 C254.88,414.87 254.71,415.00 250.48,415.00 C248.08,415.00 245.91,414.66 245.66,414.25 ZM 273.16 394.50 C272.68,391.66 268.88,383.00 268.13,383.02 C267.18,383.04 262.16,395.83 262.84,396.50 C263.16,396.83 265.69,396.96 268.46,396.79 C272.87,396.54 273.46,396.25 273.16,394.50 ZM 298.00 393.00 L 298.00 371.00 L 309.95 371.00 C317.09,371.00 322.96,371.48 324.53,372.19 C330.20,374.78 331.80,383.71 327.50,388.82 C324.63,392.23 324.43,393.00 326.43,393.00 C327.21,393.00 328.83,394.24 330.03,395.75 C331.79,397.98 332.11,399.43 331.73,403.44 C330.89,412.22 325.28,414.99 308.25,414.99 L 298.00 415.00 L 298.00 393.00 ZM 319.83 405.40 C321.54,404.21 322.04,403.02 321.81,400.65 L 321.50 397.50 L 314.25 397.21 L 307.00 396.91 L 307.00 401.96 L 307.00 407.00 L 312.28 407.00 C315.49,407.00 318.45,406.38 319.83,405.40 ZM 319.65 386.46 C322.79,382.17 320.60,379.74 313.08,379.20 L 307.00 378.76 L 307.00 384.00 L 307.00 389.25 L 312.65 388.78 C316.60,388.45 318.71,387.76 319.65,386.46 ZM 346.59 412.79 C340.34,409.12 338.50,405.88 338.50,398.50 C338.50,391.12 340.33,387.89 346.59,384.20 C349.87,382.27 351.52,381.97 356.87,382.34 C366.47,383.01 371.58,387.63 372.64,396.61 C373.38,402.89 371.25,407.95 366.24,411.77 C361.28,415.55 352.12,416.03 346.59,412.79 ZM 360.74 405.47 C363.70,403.40 364.60,398.06 362.63,394.24 C359.49,388.17 351.50,388.41 348.16,394.68 C346.37,398.05 346.76,400.56 349.59,403.92 C352.53,407.42 357.06,408.05 360.74,405.47 ZM 381.00 392.00 L 381.00 368.89 L 385.25 369.19 L 389.50 369.50 L 389.50 392.00 L 389.50 414.50 L 385.25 414.81 L 381.00 415.11 L 381.00 392.00 ZM 266.28 301.09 C259.77,296.37 256.50,290.53 254.13,279.37 C252.97,273.94 252.03,267.02 252.03,264.00 C252.04,253.44 254.08,237.45 256.24,231.00 C260.56,218.13 268.57,205.09 276.13,198.62 L 280.10 195.22 L 277.49 185.86 C276.05,180.71 274.49,175.60 274.01,174.50 C273.54,173.40 272.91,170.70 272.61,168.50 C272.31,166.30 271.38,160.23 270.54,155.00 C268.74,143.79 268.62,124.96 270.31,120.00 C271.80,115.63 276.82,112.84 282.50,113.23 L 286.50 113.50 L 287.88 119.50 C292.34,138.98 294.05,145.29 296.30,150.59 C298.50,155.75 308.80,180.92 311.00,186.50 C316.18,199.62 318.40,209.91 318.43,221.00 C318.46,231.04 317.12,236.19 311.02,249.50 C304.07,264.65 300.89,272.30 300.30,275.28 C299.96,277.05 298.84,279.09 297.82,279.82 C296.81,280.54 294.97,282.96 293.74,285.20 C292.51,287.43 290.96,290.24 290.29,291.43 C287.93,295.67 275.54,303.90 271.40,303.98 C270.80,303.99 268.49,302.69 266.28,301.09 ZM 198.87 264.75 C184.43,250.68 169.62,231.23 168.99,225.50 C168.87,224.40 168.82,220.01 168.88,215.75 L 169.00 208.00 L 172.57 208.00 C174.54,208.00 181.63,209.57 188.32,211.49 C229.69,223.34 231.52,223.94 233.25,226.06 C235.78,229.18 235.52,235.29 232.72,238.54 C228.97,242.90 223.94,242.80 206.00,238.02 C183.69,232.08 185.25,232.38 186.87,234.34 C187.63,235.25 188.79,236.00 189.45,236.00 C191.08,236.00 195.67,241.65 199.14,247.93 C201.29,251.82 202.00,254.43 202.00,258.49 C202.00,261.46 202.46,264.16 203.02,264.51 C203.58,264.86 203.75,265.60 203.40,266.16 C203.06,266.72 204.26,268.71 206.08,270.59 C212.87,277.59 208.03,273.67 198.87,264.75 ZM 0.00 112.00 L 0.00 0.00 L 113.00 0.00 C175.15,0.00 226.00,0.17 226.00,0.38 C226.00,0.58 221.61,1.29 216.25,1.96 C173.73,7.21 132.07,24.03 97.65,49.86 C44.57,89.67 10.09,148.91 1.97,214.25 C1.30,219.61 0.58,224.00 0.38,224.00 C0.17,224.00 0.00,173.60 0.00,112.00 ZM 492.65 216.39 C491.76,205.88 487.71,186.47 483.53,172.68 C463.17,105.49 411.60,48.32 345.95,20.15 C324.69,11.03 300.78,4.59 278.50,1.98 C273.00,1.34 268.31,0.63 268.08,0.41 C267.85,0.18 318.59,-0.00 380.83,-0.00 L 494.00 0.00 L 494.00 112.00 C494.00,173.60 493.84,224.00 493.65,224.00 C493.45,224.00 493.00,220.58 492.65,216.39 ZM 221.50 217.52 C217.82,216.31 199.94,210.60 185.50,206.03 C182.20,204.99 176.80,203.82 173.50,203.43 C170.20,203.04 167.17,202.23 166.77,201.61 C165.35,199.47 166.05,187.59 167.80,184.00 C169.24,181.05 170.22,180.37 174.00,179.65 C178.78,178.76 176.84,178.15 224.50,195.44 C235.83,199.54 239.00,202.21 239.00,207.61 C239.00,211.77 236.72,216.54 234.06,217.97 C231.51,219.33 226.44,219.15 221.50,217.52 ZM 225.00 191.94 C203.53,183.07 179.62,174.00 177.68,174.00 C176.38,174.00 174.59,173.20 173.70,172.22 C171.35,169.62 173.62,159.05 177.37,155.13 C180.20,152.18 186.24,149.73 187.67,150.95 C188.13,151.34 190.52,152.23 193.00,152.93 C199.54,154.76 238.14,173.85 240.26,176.30 C244.16,180.80 243.69,186.47 239.03,191.13 C235.62,194.53 231.80,194.75 225.00,191.94 ZM 219.00 160.14 C212.68,156.97 204.02,152.83 199.76,150.94 C195.51,149.05 191.83,147.01 191.60,146.40 C191.06,144.99 197.64,136.31 201.32,133.59 C205.83,130.26 212.22,131.05 221.67,136.12 C225.97,138.43 230.46,140.83 231.64,141.46 C232.81,142.08 235.51,144.12 237.64,145.99 C241.14,149.07 241.49,149.82 241.43,154.17 C241.38,157.41 240.73,159.64 239.43,161.08 C237.50,163.21 232.80,166.04 231.30,165.96 C230.86,165.94 225.32,163.32 219.00,160.14 ZM 228.25 128.78 C227.67,128.08 226.90,123.45 226.52,118.50 C226.15,113.55 224.98,104.18 223.92,97.67 C222.87,91.17 222.00,81.18 222.00,75.49 C222.00,63.59 222.86,64.51 210.74,63.44 C206.47,63.07 202.76,62.42 202.50,62.00 C202.24,61.59 203.80,60.08 205.95,58.65 C208.11,57.22 213.16,53.19 217.18,49.69 C226.61,41.49 247.30,25.00 248.17,25.00 C249.12,25.00 271.96,42.98 280.97,50.83 C285.08,54.40 289.95,58.22 291.79,59.31 C295.93,61.75 294.89,62.59 286.57,63.53 C277.58,64.55 274.42,66.14 273.65,70.01 C273.29,71.79 273.00,74.80 273.00,76.69 C273.00,83.86 272.68,84.00 255.92,84.00 C239.80,84.00 236.31,84.83 233.78,89.26 C232.92,90.76 232.34,97.72 232.00,110.42 C231.51,128.99 230.89,132.01 228.25,128.78 Z" fill="rgb(194,158,46)"/>
<path d="M 0.00 376.00 C0.00,314.40 0.17,264.00 0.38,264.00 C0.58,264.00 1.30,268.39 1.97,273.75 C16.06,387.06 107.93,475.42 224.00,487.32 C225.93,487.52 176.31,487.75 113.75,487.84 L 0.00 488.00 L 0.00 376.00 ZM 275.00 486.88 C354.83,477.77 425.04,430.91 464.35,360.50 C478.76,334.69 489.49,301.17 492.84,271.50 C493.42,266.32 493.78,303.01 493.87,375.75 L 494.00 488.00 L 380.75 487.87 C312.05,487.79 270.45,487.40 275.00,486.88 ZM 108.00 393.06 L 108.00 371.00 L 112.52 371.00 L 117.04 371.00 L 116.77 392.75 L 116.50 414.50 L 112.25 414.81 L 108.00 415.11 L 108.00 393.06 ZM 128.71 414.38 C128.32,413.99 128.00,404.07 128.00,392.33 L 128.00 371.00 L 132.91 371.00 L 137.83 371.00 L 147.91 384.73 L 158.00 398.45 L 158.00 384.73 L 158.00 371.00 L 163.02 371.00 L 168.04 371.00 L 167.77 392.75 L 167.50 414.50 L 162.97 414.80 L 158.43 415.09 L 153.03 407.30 C150.07,403.01 145.58,396.85 143.07,393.61 L 138.50 387.73 L 138.00 401.11 L 137.50 414.50 L 133.46 414.80 C131.24,414.96 129.11,414.77 128.71,414.38 ZM 179.67 414.33 C179.30,413.97 179.00,404.07 179.00,392.33 L 179.00 371.00 L 191.03 371.00 C204.53,371.00 208.40,372.07 213.79,377.29 C217.82,381.19 220.50,389.48 219.58,395.22 C218.20,403.87 212.57,410.60 204.25,413.57 C200.39,414.95 180.89,415.55 179.67,414.33 ZM 203.81 403.97 C209.37,400.58 211.38,393.24 208.58,386.53 C206.69,382.01 202.52,380.00 195.05,380.00 L 189.00 380.00 L 189.00 393.00 L 189.00 406.00 L 194.75 406.00 C198.75,405.99 201.51,405.38 203.81,403.97 ZM 229.00 393.00 L 229.00 371.00 L 233.38 371.00 C237.08,371.00 237.86,371.35 238.37,373.25 C239.16,376.21 239.15,406.44 238.36,411.25 C237.75,414.92 237.64,415.00 233.37,415.00 L 229.00 415.00 L 229.00 393.00 ZM 245.66 414.25 C245.40,413.84 246.53,410.58 248.16,407.00 C249.79,403.42 253.86,393.86 257.19,385.75 L 263.25 371.00 L 267.95 371.00 C272.60,371.00 272.69,371.06 274.80,375.75 C283.51,395.07 290.86,413.54 290.13,414.27 C289.65,414.75 287.52,414.99 285.38,414.82 C281.91,414.53 281.30,414.06 279.62,410.34 C277.47,405.58 276.78,405.36 265.86,405.82 L 258.21 406.15 L 256.52 410.58 C254.88,414.87 254.71,415.00 250.48,415.00 C248.08,415.00 245.91,414.66 245.66,414.25 ZM 273.16 394.50 C272.68,391.66 268.88,383.00 268.13,383.02 C267.18,383.04 262.16,395.83 262.84,396.50 C263.16,396.83 265.69,396.96 268.46,396.79 C272.87,396.54 273.46,396.25 273.16,394.50 ZM 298.00 393.00 L 298.00 371.00 L 309.95 371.00 C317.09,371.00 322.96,371.48 324.53,372.19 C330.20,374.78 331.80,383.71 327.50,388.82 C324.63,392.23 324.43,393.00 326.43,393.00 C327.21,393.00 328.83,394.24 330.03,395.75 C331.79,397.98 332.11,399.43 331.73,403.44 C330.89,412.22 325.28,414.99 308.25,414.99 L 298.00 415.00 L 298.00 393.00 ZM 319.83 405.40 C321.54,404.21 322.04,403.02 321.81,400.65 L 321.50 397.50 L 314.25 397.21 L 307.00 396.91 L 307.00 401.96 L 307.00 407.00 L 312.28 407.00 C315.49,407.00 318.45,406.38 319.83,405.40 ZM 319.65 386.46 C322.79,382.17 320.60,379.74 313.08,379.20 L 307.00 378.76 L 307.00 384.00 L 307.00 389.25 L 312.65 388.78 C316.60,388.45 318.71,387.76 319.65,386.46 ZM 346.59 412.79 C340.34,409.12 338.50,405.88 338.50,398.50 C338.50,391.12 340.33,387.89 346.59,384.20 C349.87,382.27 351.52,381.97 356.87,382.34 C366.47,383.01 371.58,387.63 372.64,396.61 C373.38,402.89 371.25,407.95 366.24,411.77 C361.28,415.55 352.12,416.03 346.59,412.79 ZM 360.74 405.47 C363.70,403.40 364.60,398.06 362.63,394.24 C359.49,388.17 351.50,388.41 348.16,394.68 C346.37,398.05 346.76,400.56 349.59,403.92 C352.53,407.42 357.06,408.05 360.74,405.47 ZM 381.00 392.00 L 381.00 368.89 L 385.25 369.19 L 389.50 369.50 L 389.50 392.00 L 389.50 414.50 L 385.25 414.81 L 381.00 415.11 L 381.00 392.00 ZM 296.00 265.20 C296.00,263.29 290.27,262.23 279.00,262.05 C265.37,261.83 257.97,260.03 254.91,256.19 C252.99,253.76 252.84,252.71 253.42,245.50 C254.76,228.96 264.72,208.39 276.13,198.62 L 280.10 195.22 L 277.49 185.86 C276.05,180.71 274.49,175.60 274.01,174.50 C273.54,173.40 272.91,170.70 272.61,168.50 C272.31,166.30 271.38,160.23 270.54,155.00 C268.74,143.79 268.62,124.96 270.31,120.00 C271.80,115.63 276.82,112.84 282.50,113.23 L 286.50 113.50 L 287.88 119.50 C292.34,138.98 294.05,145.29 296.30,150.59 C298.50,155.75 308.80,180.92 311.00,186.50 C318.83,206.33 320.66,224.39 316.11,237.00 C311.79,248.98 307.79,256.12 302.72,260.88 C297.49,265.79 296.00,266.75 296.00,265.20 ZM 196.26 261.09 C194.77,259.39 193.09,257.98 192.53,257.96 C191.08,257.90 175.53,238.50 172.07,232.44 C168.80,226.73 168.73,226.33 168.88,215.75 L 169.00 208.00 L 172.57 208.00 C174.54,208.00 181.63,209.57 188.32,211.49 C229.69,223.34 231.52,223.94 233.25,226.06 C235.78,229.18 235.52,235.29 232.72,238.54 C228.97,242.90 223.94,242.80 206.00,238.02 C183.69,232.08 185.25,232.38 186.87,234.34 C187.63,235.25 188.79,236.00 189.45,236.00 C191.09,236.00 195.68,241.66 199.19,248.01 C201.52,252.23 202.04,254.27 201.80,258.31 C201.43,264.45 199.89,265.22 196.26,261.09 ZM 0.00 112.00 L 0.00 0.00 L 113.00 0.00 C175.15,0.00 226.00,0.17 226.00,0.38 C226.00,0.58 221.61,1.29 216.25,1.96 C173.73,7.21 132.07,24.03 97.65,49.86 C44.57,89.67 10.09,148.91 1.97,214.25 C1.30,219.61 0.58,224.00 0.38,224.00 C0.17,224.00 0.00,173.60 0.00,112.00 ZM 492.65 216.39 C491.76,205.88 487.71,186.47 483.53,172.68 C463.17,105.49 411.60,48.32 345.95,20.15 C324.69,11.03 300.78,4.59 278.50,1.98 C273.00,1.34 268.31,0.63 268.08,0.41 C267.85,0.18 318.59,-0.00 380.83,-0.00 L 494.00 0.00 L 494.00 112.00 C494.00,173.60 493.84,224.00 493.65,224.00 C493.45,224.00 493.00,220.58 492.65,216.39 ZM 221.50 217.52 C217.82,216.31 199.94,210.60 185.50,206.03 C182.20,204.99 176.80,203.82 173.50,203.43 C170.20,203.04 167.17,202.23 166.77,201.61 C165.35,199.47 166.05,187.59 167.80,184.00 C169.24,181.05 170.22,180.37 174.00,179.65 C178.78,178.76 176.84,178.15 224.50,195.44 C235.83,199.54 239.00,202.21 239.00,207.61 C239.00,211.77 236.72,216.54 234.06,217.97 C231.51,219.33 226.44,219.15 221.50,217.52 ZM 225.00 191.94 C203.53,183.07 179.62,174.00 177.68,174.00 C176.38,174.00 174.59,173.20 173.70,172.22 C171.35,169.62 173.62,159.05 177.37,155.13 C180.20,152.18 186.24,149.73 187.67,150.95 C188.13,151.34 190.52,152.23 193.00,152.93 C199.54,154.76 238.14,173.85 240.26,176.30 C244.16,180.80 243.69,186.47 239.03,191.13 C235.62,194.53 231.80,194.75 225.00,191.94 ZM 219.00 160.14 C212.68,156.97 204.02,152.83 199.76,150.94 C195.51,149.05 191.83,147.01 191.60,146.40 C191.06,144.99 197.64,136.31 201.32,133.59 C205.83,130.26 212.22,131.05 221.67,136.12 C225.97,138.43 230.46,140.83 231.64,141.46 C232.81,142.08 235.51,144.12 237.64,145.99 C241.14,149.07 241.49,149.82 241.43,154.17 C241.38,157.41 240.73,159.64 239.43,161.08 C237.50,163.21 232.80,166.04 231.30,165.96 C230.86,165.94 225.32,163.32 219.00,160.14 ZM 228.25 128.78 C227.67,128.08 226.90,123.45 226.52,118.50 C226.15,113.55 224.98,104.18 223.92,97.67 C222.87,91.17 222.00,81.18 222.00,75.49 C222.00,63.59 222.86,64.51 210.74,63.44 C206.47,63.07 202.76,62.42 202.50,62.00 C202.24,61.59 203.80,60.08 205.95,58.65 C208.11,57.22 213.16,53.19 217.18,49.69 C226.61,41.49 247.30,25.00 248.17,25.00 C249.12,25.00 271.96,42.98 280.97,50.83 C285.08,54.40 289.95,58.22 291.79,59.31 C295.93,61.75 294.89,62.59 286.57,63.53 C277.58,64.55 274.42,66.14 273.65,70.01 C273.29,71.79 273.00,74.80 273.00,76.69 C273.00,83.86 272.68,84.00 255.92,84.00 C239.80,84.00 236.31,84.83 233.78,89.26 C232.92,90.76 232.34,97.72 232.00,110.42 C231.51,128.99 230.89,132.01 228.25,128.78 Z" fill="rgb(221,130,39)"/>
<path d="M 0.00 376.00 C0.00,314.40 0.17,264.00 0.38,264.00 C0.58,264.00 1.30,268.39 1.97,273.75 C16.06,387.06 107.93,475.42 224.00,487.32 C225.93,487.52 176.31,487.75 113.75,487.84 L 0.00 488.00 L 0.00 376.00 ZM 275.00 486.88 C354.83,477.77 425.04,430.91 464.35,360.50 C478.76,334.69 489.49,301.17 492.84,271.50 C493.42,266.32 493.78,303.01 493.87,375.75 L 494.00 488.00 L 380.75 487.87 C312.05,487.79 270.45,487.40 275.00,486.88 ZM 108.00 393.06 L 108.00 371.00 L 112.52 371.00 L 117.04 371.00 L 116.77 392.75 L 116.50 414.50 L 112.25 414.81 L 108.00 415.11 L 108.00 393.06 ZM 128.71 414.38 C128.32,413.99 128.00,404.07 128.00,392.33 L 128.00 371.00 L 132.91 371.00 L 137.83 371.00 L 147.91 384.73 L 158.00 398.45 L 158.00 384.73 L 158.00 371.00 L 163.02 371.00 L 168.04 371.00 L 167.77 392.75 L 167.50 414.50 L 162.97 414.80 L 158.43 415.09 L 153.03 407.30 C150.07,403.01 145.58,396.85 143.07,393.61 L 138.50 387.73 L 138.00 401.11 L 137.50 414.50 L 133.46 414.80 C131.24,414.96 129.11,414.77 128.71,414.38 ZM 179.67 414.33 C179.30,413.97 179.00,404.07 179.00,392.33 L 179.00 371.00 L 191.03 371.00 C204.53,371.00 208.40,372.07 213.79,377.29 C217.82,381.19 220.50,389.48 219.58,395.22 C218.20,403.87 212.57,410.60 204.25,413.57 C200.39,414.95 180.89,415.55 179.67,414.33 ZM 203.81 403.97 C209.37,400.58 211.38,393.24 208.58,386.53 C206.69,382.01 202.52,380.00 195.05,380.00 L 189.00 380.00 L 189.00 393.00 L 189.00 406.00 L 194.75 406.00 C198.75,405.99 201.51,405.38 203.81,403.97 ZM 229.00 393.00 L 229.00 371.00 L 233.38 371.00 C237.08,371.00 237.86,371.35 238.37,373.25 C239.16,376.21 239.15,406.44 238.36,411.25 C237.75,414.92 237.64,415.00 233.37,415.00 L 229.00 415.00 L 229.00 393.00 ZM 245.66 414.25 C245.40,413.84 246.53,410.58 248.16,407.00 C249.79,403.42 253.86,393.86 257.19,385.75 L 263.25 371.00 L 267.95 371.00 C272.60,371.00 272.69,371.06 274.80,375.75 C283.51,395.07 290.86,413.54 290.13,414.27 C289.65,414.75 287.52,414.99 285.38,414.82 C281.91,414.53 281.30,414.06 279.62,410.34 C277.47,405.58 276.78,405.36 265.86,405.82 L 258.21 406.15 L 256.52 410.58 C254.88,414.87 254.71,415.00 250.48,415.00 C248.08,415.00 245.91,414.66 245.66,414.25 ZM 273.16 394.50 C272.68,391.66 268.88,383.00 268.13,383.02 C267.18,383.04 262.16,395.83 262.84,396.50 C263.16,396.83 265.69,396.96 268.46,396.79 C272.87,396.54 273.46,396.25 273.16,394.50 ZM 298.00 393.00 L 298.00 371.00 L 309.95 371.00 C317.09,371.00 322.96,371.48 324.53,372.19 C330.20,374.78 331.80,383.71 327.50,388.82 C324.63,392.23 324.43,393.00 326.43,393.00 C327.21,393.00 328.83,394.24 330.03,395.75 C331.79,397.98 332.11,399.43 331.73,403.44 C330.89,412.22 325.28,414.99 308.25,414.99 L 298.00 415.00 L 298.00 393.00 ZM 319.83 405.40 C321.54,404.21 322.04,403.02 321.81,400.65 L 321.50 397.50 L 314.25 397.21 L 307.00 396.91 L 307.00 401.96 L 307.00 407.00 L 312.28 407.00 C315.49,407.00 318.45,406.38 319.83,405.40 ZM 319.65 386.46 C322.79,382.17 320.60,379.74 313.08,379.20 L 307.00 378.76 L 307.00 384.00 L 307.00 389.25 L 312.65 388.78 C316.60,388.45 318.71,387.76 319.65,386.46 ZM 346.59 412.79 C340.34,409.12 338.50,405.88 338.50,398.50 C338.50,391.12 340.33,387.89 346.59,384.20 C349.87,382.27 351.52,381.97 356.87,382.34 C366.47,383.01 371.58,387.63 372.64,396.61 C373.38,402.89 371.25,407.95 366.24,411.77 C361.28,415.55 352.12,416.03 346.59,412.79 ZM 360.74 405.47 C363.70,403.40 364.60,398.06 362.63,394.24 C359.49,388.17 351.50,388.41 348.16,394.68 C346.37,398.05 346.76,400.56 349.59,403.92 C352.53,407.42 357.06,408.05 360.74,405.47 ZM 381.00 392.00 L 381.00 368.89 L 385.25 369.19 L 389.50 369.50 L 389.50 392.00 L 389.50 414.50 L 385.25 414.81 L 381.00 415.11 L 381.00 392.00 ZM 296.00 265.20 C296.00,263.29 290.27,262.23 279.00,262.05 C265.37,261.83 257.97,260.03 254.91,256.19 C252.99,253.76 252.84,252.71 253.42,245.50 C254.76,228.96 264.72,208.39 276.13,198.62 L 280.10 195.22 L 277.49 185.86 C276.05,180.71 274.49,175.60 274.01,174.50 C273.54,173.40 272.91,170.70 272.61,168.50 C272.31,166.30 271.38,160.23 270.54,155.00 C268.74,143.79 268.62,124.96 270.31,120.00 C271.80,115.63 276.82,112.84 282.50,113.23 L 286.50 113.50 L 287.88 119.50 C292.34,138.98 294.05,145.29 296.30,150.59 C298.50,155.75 308.80,180.92 311.00,186.50 C318.83,206.33 320.66,224.39 316.11,237.00 C311.79,248.98 307.79,256.12 302.72,260.88 C297.49,265.79 296.00,266.75 296.00,265.20 ZM 175.44 236.23 C172.83,234.04 170.03,229.58 168.98,225.93 C168.37,223.82 168.62,222.60 169.94,221.07 C170.91,219.95 171.99,219.33 172.35,219.68 C172.71,220.04 173.00,219.88 173.00,219.33 C173.00,218.28 175.85,218.18 177.52,219.18 C178.06,219.50 179.96,220.08 181.74,220.46 C183.52,220.84 185.22,221.55 185.53,222.04 C186.07,222.92 181.19,231.19 179.75,231.83 C179.34,232.02 179.00,233.06 179.00,234.14 C179.00,235.40 178.57,235.85 177.83,235.39 C177.04,234.91 176.87,235.22 177.30,236.34 C178.08,238.38 178.00,238.38 175.44,236.23 ZM 0.00 112.00 L 0.00 0.00 L 113.00 0.00 C175.15,0.00 226.00,0.17 226.00,0.38 C226.00,0.58 221.61,1.29 216.25,1.96 C173.73,7.21 132.07,24.03 97.65,49.86 C44.57,89.67 10.09,148.91 1.97,214.25 C1.30,219.61 0.58,224.00 0.38,224.00 C0.17,224.00 0.00,173.60 0.00,112.00 ZM 492.65 216.39 C491.76,205.88 487.71,186.47 483.53,172.68 C463.17,105.49 411.60,48.32 345.95,20.15 C324.69,11.03 300.78,4.59 278.50,1.98 C273.00,1.34 268.31,0.63 268.08,0.41 C267.85,0.18 318.59,-0.00 380.83,-0.00 L 494.00 0.00 L 494.00 112.00 C494.00,173.60 493.84,224.00 493.65,224.00 C493.45,224.00 493.00,220.58 492.65,216.39 ZM 174.50 195.33 C166.86,194.37 167.00,194.51 167.52,188.34 C168.11,181.44 169.01,180.27 174.33,179.48 C180.25,178.60 196.84,184.47 198.93,188.19 C200.19,190.43 200.19,190.95 198.94,192.17 C197.64,193.43 182.51,196.22 178.95,195.85 C178.15,195.77 176.15,195.53 174.50,195.33 ZM 231.00 180.87 C225.23,178.71 216.68,176.09 212.00,175.04 C207.32,173.99 199.04,171.75 193.60,170.06 C188.15,168.37 181.29,166.70 178.35,166.35 C175.41,166.01 173.00,165.45 173.01,165.11 C173.03,162.25 175.49,156.92 177.74,154.83 C180.83,151.96 186.33,149.79 187.64,150.92 C188.11,151.33 190.52,152.23 193.00,152.93 C197.95,154.32 237.56,173.41 239.48,175.34 C242.32,178.18 244.35,185.19 242.25,184.89 C241.84,184.84 236.77,183.02 231.00,180.87 ZM 233.46 157.07 C231.79,156.67 226.39,154.49 221.46,152.23 C209.01,146.53 202.32,144.00 199.65,144.00 C198.40,144.00 196.57,143.40 195.57,142.67 C193.86,141.43 193.95,141.12 197.11,137.53 C203.76,129.95 209.55,129.67 222.00,136.32 C226.12,138.52 230.46,140.83 231.64,141.46 C235.32,143.42 240.76,148.66 241.48,150.95 C241.87,152.16 241.91,154.24 241.57,155.57 C240.92,158.15 239.26,158.46 233.46,157.07 ZM 228.25 128.78 C227.67,128.08 226.90,123.45 226.52,118.50 C226.15,113.55 224.98,104.18 223.92,97.67 C222.87,91.17 222.00,81.18 222.00,75.49 C222.00,63.59 222.86,64.51 210.74,63.44 C206.47,63.07 202.76,62.42 202.50,62.00 C202.24,61.59 203.80,60.08 205.95,58.65 C208.11,57.22 213.16,53.19 217.18,49.69 C226.61,41.49 247.30,25.00 248.17,25.00 C249.12,25.00 271.96,42.98 280.97,50.83 C285.08,54.40 289.95,58.22 291.79,59.31 C295.93,61.75 294.89,62.59 286.57,63.53 C277.58,64.55 274.42,66.14 273.65,70.01 C273.29,71.79 273.00,74.80 273.00,76.69 C273.00,83.86 272.68,84.00 255.92,84.00 C239.80,84.00 236.31,84.83 233.78,89.26 C232.92,90.76 232.34,97.72 232.00,110.42 C231.51,128.99 230.89,132.01 228.25,128.78 Z" fill="rgb(242,163,42)"/>
<path d="M 0.00 376.00 C0.00,314.40 0.17,264.00 0.38,264.00 C0.58,264.00 1.30,268.39 1.97,273.75 C16.06,387.06 107.93,475.42 224.00,487.32 C225.93,487.52 176.31,487.75 113.75,487.84 L 0.00 488.00 L 0.00 376.00 ZM 275.00 486.88 C354.83,477.77 425.04,430.91 464.35,360.50 C478.76,334.69 489.49,301.17 492.84,271.50 C493.42,266.32 493.78,303.01 493.87,375.75 L 494.00 488.00 L 380.75 487.87 C312.05,487.79 270.45,487.40 275.00,486.88 ZM 108.00 393.06 L 108.00 371.00 L 112.52 371.00 L 117.04 371.00 L 116.77 392.75 L 116.50 414.50 L 112.25 414.81 L 108.00 415.11 L 108.00 393.06 ZM 128.71 414.38 C128.32,413.99 128.00,404.07 128.00,392.33 L 128.00 371.00 L 132.91 371.00 L 137.83 371.00 L 147.91 384.73 L 158.00 398.45 L 158.00 384.73 L 158.00 371.00 L 163.02 371.00 L 168.04 371.00 L 167.77 392.75 L 167.50 414.50 L 162.97 414.80 L 158.43 415.09 L 153.03 407.30 C150.07,403.01 145.58,396.85 143.07,393.61 L 138.50 387.73 L 138.00 401.11 L 137.50 414.50 L 133.46 414.80 C131.24,414.96 129.11,414.77 128.71,414.38 ZM 179.67 414.33 C179.30,413.97 179.00,404.07 179.00,392.33 L 179.00 371.00 L 191.03 371.00 C204.53,371.00 208.40,372.07 213.79,377.29 C217.82,381.19 220.50,389.48 219.58,395.22 C218.20,403.87 212.57,410.60 204.25,413.57 C200.39,414.95 180.89,415.55 179.67,414.33 ZM 203.81 403.97 C209.37,400.58 211.38,393.24 208.58,386.53 C206.69,382.01 202.52,380.00 195.05,380.00 L 189.00 380.00 L 189.00 393.00 L 189.00 406.00 L 194.75 406.00 C198.75,405.99 201.51,405.38 203.81,403.97 ZM 229.00 393.00 L 229.00 371.00 L 233.38 371.00 C237.08,371.00 237.86,371.35 238.37,373.25 C239.16,376.21 239.15,406.44 238.36,411.25 C237.75,414.92 237.64,415.00 233.37,415.00 L 229.00 415.00 L 229.00 393.00 ZM 245.66 414.25 C245.40,413.84 246.53,410.58 248.16,407.00 C249.79,403.42 253.86,393.86 257.19,385.75 L 263.25 371.00 L 267.95 371.00 C272.60,371.00 272.69,371.06 274.80,375.75 C283.51,395.07 290.86,413.54 290.13,414.27 C289.65,414.75 287.52,414.99 285.38,414.82 C281.91,414.53 281.30,414.06 279.62,410.34 C277.47,405.58 276.78,405.36 265.86,405.82 L 258.21 406.15 L 256.52 410.58 C254.88,414.87 254.71,415.00 250.48,415.00 C248.08,415.00 245.91,414.66 245.66,414.25 ZM 273.16 394.50 C272.68,391.66 268.88,383.00 268.13,383.02 C267.18,383.04 262.16,395.83 262.84,396.50 C263.16,396.83 265.69,396.96 268.46,396.79 C272.87,396.54 273.46,396.25 273.16,394.50 ZM 298.00 393.00 L 298.00 371.00 L 309.95 371.00 C317.09,371.00 322.96,371.48 324.53,372.19 C330.20,374.78 331.80,383.71 327.50,388.82 C324.63,392.23 324.43,393.00 326.43,393.00 C327.21,393.00 328.83,394.24 330.03,395.75 C331.79,397.98 332.11,399.43 331.73,403.44 C330.89,412.22 325.28,414.99 308.25,414.99 L 298.00 415.00 L 298.00 393.00 ZM 319.83 405.40 C321.54,404.21 322.04,403.02 321.81,400.65 L 321.50 397.50 L 314.25 397.21 L 307.00 396.91 L 307.00 401.96 L 307.00 407.00 L 312.28 407.00 C315.49,407.00 318.45,406.38 319.83,405.40 ZM 319.65 386.46 C322.79,382.17 320.60,379.74 313.08,379.20 L 307.00 378.76 L 307.00 384.00 L 307.00 389.25 L 312.65 388.78 C316.60,388.45 318.71,387.76 319.65,386.46 ZM 346.59 412.79 C340.34,409.12 338.50,405.88 338.50,398.50 C338.50,391.12 340.33,387.89 346.59,384.20 C349.87,382.27 351.52,381.97 356.87,382.34 C366.47,383.01 371.58,387.63 372.64,396.61 C373.38,402.89 371.25,407.95 366.24,411.77 C361.28,415.55 352.12,416.03 346.59,412.79 ZM 360.74 405.47 C363.70,403.40 364.60,398.06 362.63,394.24 C359.49,388.17 351.50,388.41 348.16,394.68 C346.37,398.05 346.76,400.56 349.59,403.92 C352.53,407.42 357.06,408.05 360.74,405.47 ZM 381.00 392.00 L 381.00 368.89 L 385.25 369.19 L 389.50 369.50 L 389.50 392.00 L 389.50 414.50 L 385.25 414.81 L 381.00 415.11 L 381.00 392.00 ZM 0.00 112.00 L 0.00 0.00 L 113.00 0.00 C175.15,0.00 226.00,0.17 226.00,0.38 C226.00,0.58 221.61,1.29 216.25,1.96 C173.73,7.21 132.07,24.03 97.65,49.86 C44.57,89.67 10.09,148.91 1.97,214.25 C1.30,219.61 0.58,224.00 0.38,224.00 C0.17,224.00 0.00,173.60 0.00,112.00 ZM 492.65 216.39 C491.76,205.88 487.71,186.47 483.53,172.68 C463.17,105.49 411.60,48.32 345.95,20.15 C324.69,11.03 300.78,4.59 278.50,1.98 C273.00,1.34 268.31,0.63 268.08,0.41 C267.85,0.18 318.59,-0.00 380.83,-0.00 L 494.00 0.00 L 494.00 112.00 C494.00,173.60 493.84,224.00 493.65,224.00 C493.45,224.00 493.00,220.58 492.65,216.39 ZM 268.19 207.37 C270.01,204.83 273.43,201.04 275.79,198.96 L 280.09 195.17 L 277.48 185.84 C276.05,180.70 274.49,175.60 274.01,174.50 C273.54,173.40 272.91,170.70 272.61,168.50 C272.31,166.30 271.38,160.23 270.54,155.00 C268.74,143.79 268.62,124.96 270.31,120.00 C271.80,115.63 276.82,112.84 282.50,113.23 L 286.50 113.50 L 287.88 119.50 C292.34,138.98 294.05,145.29 296.30,150.59 C298.50,155.75 308.80,180.92 311.00,186.50 C314.92,196.42 318.61,210.72 317.53,211.80 C317.15,212.18 315.27,210.78 313.35,208.69 C310.08,205.12 309.52,204.89 304.18,204.95 C292.02,205.08 285.41,205.67 283.32,206.81 C280.93,208.11 278.00,208.39 278.00,207.33 C278.00,206.96 278.72,205.86 279.60,204.89 C280.48,203.92 280.90,202.65 280.54,202.06 C279.47,200.33 276.15,200.85 275.04,202.93 C274.47,204.00 273.21,205.12 272.25,205.43 C271.29,205.74 269.73,207.35 268.80,209.00 C267.86,210.65 266.59,212.00 265.98,212.00 C265.37,212.00 266.37,209.92 268.19,207.37 ZM 228.25 128.78 C227.67,128.08 226.90,123.45 226.52,118.50 C226.15,113.55 224.98,104.18 223.92,97.67 C222.87,91.17 222.00,81.18 222.00,75.49 C222.00,63.59 222.86,64.51 210.74,63.44 C206.47,63.07 202.76,62.42 202.50,62.00 C202.24,61.59 203.80,60.08 205.95,58.65 C208.11,57.22 213.16,53.19 217.18,49.69 C226.61,41.49 247.30,25.00 248.17,25.00 C249.12,25.00 271.96,42.98 280.97,50.83 C285.08,54.40 289.95,58.22 291.79,59.31 C295.93,61.75 294.89,62.59 286.57,63.53 C277.58,64.55 274.42,66.14 273.65,70.01 C273.29,71.79 273.00,74.80 273.00,76.69 C273.00,83.86 272.68,84.00 255.92,84.00 C239.80,84.00 236.31,84.83 233.78,89.26 C232.92,90.76 232.34,97.72 232.00,110.42 C231.51,128.99 230.89,132.01 228.25,128.78 Z" fill="rgb(247,174,82)"/>
<path d="M 0.00 376.00 C0.00,314.40 0.17,264.00 0.38,264.00 C0.58,264.00 1.30,268.39 1.97,273.75 C16.06,387.06 107.93,475.42 224.00,487.32 C225.93,487.52 176.31,487.75 113.75,487.84 L 0.00 488.00 L 0.00 376.00 ZM 275.00 486.88 C354.83,477.77 425.04,430.91 464.35,360.50 C478.76,334.69 489.49,301.17 492.84,271.50 C493.42,266.32 493.78,303.01 493.87,375.75 L 494.00 488.00 L 380.75 487.87 C312.05,487.79 270.45,487.40 275.00,486.88 ZM 108.00 393.06 L 108.00 371.00 L 112.52 371.00 L 117.04 371.00 L 116.77 392.75 L 116.50 414.50 L 112.25 414.81 L 108.00 415.11 L 108.00 393.06 ZM 128.71 414.38 C128.32,413.99 128.00,404.07 128.00,392.33 L 128.00 371.00 L 132.91 371.00 L 137.83 371.00 L 147.91 384.73 L 158.00 398.45 L 158.00 384.73 L 158.00 371.00 L 163.02 371.00 L 168.04 371.00 L 167.77 392.75 L 167.50 414.50 L 162.97 414.80 L 158.43 415.09 L 153.03 407.30 C150.07,403.01 145.58,396.85 143.07,393.61 L 138.50 387.73 L 138.00 401.11 L 137.50 414.50 L 133.46 414.80 C131.24,414.96 129.11,414.77 128.71,414.38 ZM 179.67 414.33 C179.30,413.97 179.00,404.07 179.00,392.33 L 179.00 371.00 L 191.03 371.00 C204.53,371.00 208.40,372.07 213.79,377.29 C217.82,381.19 220.50,389.48 219.58,395.22 C218.20,403.87 212.57,410.60 204.25,413.57 C200.39,414.95 180.89,415.55 179.67,414.33 ZM 203.81 403.97 C209.37,400.58 211.38,393.24 208.58,386.53 C206.69,382.01 202.52,380.00 195.05,380.00 L 189.00 380.00 L 189.00 393.00 L 189.00 406.00 L 194.75 406.00 C198.75,405.99 201.51,405.38 203.81,403.97 ZM 229.00 393.00 L 229.00 371.00 L 233.38 371.00 C237.08,371.00 237.86,371.35 238.37,373.25 C239.16,376.21 239.15,406.44 238.36,411.25 C237.75,414.92 237.64,415.00 233.37,415.00 L 229.00 415.00 L 229.00 393.00 ZM 245.66 414.25 C245.40,413.84 246.53,410.58 248.16,407.00 C249.79,403.42 253.86,393.86 257.19,385.75 L 263.25 371.00 L 267.95 371.00 C272.60,371.00 272.69,371.06 274.80,375.75 C283.51,395.07 290.86,413.54 290.13,414.27 C289.65,414.75 287.52,414.99 285.38,414.82 C281.91,414.53 281.30,414.06 279.62,410.34 C277.47,405.58 276.78,405.36 265.86,405.82 L 258.21 406.15 L 256.52 410.58 C254.88,414.87 254.71,415.00 250.48,415.00 C248.08,415.00 245.91,414.66 245.66,414.25 ZM 273.16 394.50 C272.68,391.66 268.88,383.00 268.13,383.02 C267.18,383.04 262.16,395.83 262.84,396.50 C263.16,396.83 265.69,396.96 268.46,396.79 C272.87,396.54 273.46,396.25 273.16,394.50 ZM 298.00 393.00 L 298.00 371.00 L 309.95 371.00 C317.09,371.00 322.96,371.48 324.53,372.19 C330.20,374.78 331.80,383.71 327.50,388.82 C324.63,392.23 324.43,393.00 326.43,393.00 C327.21,393.00 328.83,394.24 330.03,395.75 C331.79,397.98 332.11,399.43 331.73,403.44 C330.89,412.22 325.28,414.99 308.25,414.99 L 298.00 415.00 L 298.00 393.00 ZM 319.83 405.40 C321.54,404.21 322.04,403.02 321.81,400.65 L 321.50 397.50 L 314.25 397.21 L 307.00 396.91 L 307.00 401.96 L 307.00 407.00 L 312.28 407.00 C315.49,407.00 318.45,406.38 319.83,405.40 ZM 319.65 386.46 C322.79,382.17 320.60,379.74 313.08,379.20 L 307.00 378.76 L 307.00 384.00 L 307.00 389.25 L 312.65 388.78 C316.60,388.45 318.71,387.76 319.65,386.46 ZM 346.59 412.79 C340.34,409.12 338.50,405.88 338.50,398.50 C338.50,391.12 340.33,387.89 346.59,384.20 C349.87,382.27 351.52,381.97 356.87,382.34 C366.47,383.01 371.58,387.63 372.64,396.61 C373.38,402.89 371.25,407.95 366.24,411.77 C361.28,415.55 352.12,416.03 346.59,412.79 ZM 360.74 405.47 C363.70,403.40 364.60,398.06 362.63,394.24 C359.49,388.17 351.50,388.41 348.16,394.68 C346.37,398.05 346.76,400.56 349.59,403.92 C352.53,407.42 357.06,408.05 360.74,405.47 ZM 381.00 392.00 L 381.00 368.89 L 385.25 369.19 L 389.50 369.50 L 389.50 392.00 L 389.50 414.50 L 385.25 414.81 L 381.00 415.11 L 381.00 392.00 ZM 0.00 112.00 L 0.00 0.00 L 113.00 0.00 C175.15,0.00 226.00,0.17 226.00,0.38 C226.00,0.58 221.61,1.29 216.25,1.96 C173.73,7.21 132.07,24.03 97.65,49.86 C44.57,89.67 10.09,148.91 1.97,214.25 C1.30,219.61 0.58,224.00 0.38,224.00 C0.17,224.00 0.00,173.60 0.00,112.00 ZM 492.65 216.39 C491.76,205.88 487.71,186.47 483.53,172.68 C463.17,105.49 411.60,48.32 345.95,20.15 C324.69,11.03 300.78,4.59 278.50,1.98 C273.00,1.34 268.31,0.63 268.08,0.41 C267.85,0.18 318.59,-0.00 380.83,-0.00 L 494.00 0.00 L 494.00 112.00 C494.00,173.60 493.84,224.00 493.65,224.00 C493.45,224.00 493.00,220.58 492.65,216.39 ZM 308.36 188.28 C307.99,186.83 306.64,184.08 305.35,182.18 C304.06,180.28 303.00,178.19 303.00,177.55 C303.00,176.90 302.15,175.46 301.11,174.34 C300.06,173.23 298.48,170.89 297.58,169.16 C296.68,167.42 295.28,166.00 294.47,166.00 C293.65,166.00 292.04,164.91 290.88,163.58 C289.62,162.13 287.99,161.31 286.81,161.54 C279.01,163.04 275.00,166.11 275.00,170.57 C275.00,175.66 273.34,174.72 272.68,169.25 C272.36,166.64 271.41,160.23 270.56,155.00 C268.74,143.83 268.61,124.98 270.31,120.00 C271.80,115.63 276.82,112.84 282.50,113.23 L 286.50 113.50 L 287.88 119.50 C292.34,138.98 294.05,145.29 296.30,150.59 C297.69,153.84 301.37,162.80 304.50,170.50 C307.62,178.20 310.59,185.28 311.09,186.24 C312.37,188.68 312.23,189.70 310.51,190.36 C309.50,190.75 308.81,190.09 308.36,188.28 ZM 228.25 128.78 C227.67,128.08 226.90,123.45 226.52,118.50 C226.15,113.55 224.98,104.18 223.92,97.67 C222.87,91.17 222.00,81.18 222.00,75.49 C222.00,63.59 222.86,64.51 210.74,63.44 C206.47,63.07 202.76,62.42 202.50,62.00 C202.24,61.59 203.80,60.08 205.95,58.65 C208.11,57.22 213.16,53.19 217.18,49.69 C226.61,41.49 247.30,25.00 248.17,25.00 C249.12,25.00 271.96,42.98 280.97,50.83 C285.08,54.40 289.95,58.22 291.79,59.31 C295.93,61.75 294.89,62.59 286.57,63.53 C277.58,64.55 274.42,66.14 273.65,70.01 C273.29,71.79 273.00,74.80 273.00,76.69 C273.00,83.86 272.68,84.00 255.92,84.00 C239.80,84.00 236.31,84.83 233.78,89.26 C232.92,90.76 232.34,97.72 232.00,110.42 C231.51,128.99 230.89,132.01 228.25,128.78 Z" fill="rgb(248,199,128)"/>
<path d="M 0.00 376.00 C0.00,314.40 0.17,264.00 0.38,264.00 C0.58,264.00 1.30,268.39 1.97,273.75 C16.06,387.06 107.93,475.42 224.00,487.32 C225.93,487.52 176.31,487.75 113.75,487.84 L 0.00 488.00 L 0.00 376.00 ZM 275.00 486.88 C354.83,477.77 425.04,430.91 464.35,360.50 C478.76,334.69 489.49,301.17 492.84,271.50 C493.42,266.32 493.78,303.01 493.87,375.75 L 494.00 488.00 L 380.75 487.87 C312.05,487.79 270.45,487.40 275.00,486.88 ZM 108.00 393.06 L 108.00 371.00 L 112.52 371.00 L 117.04 371.00 L 116.77 392.75 L 116.50 414.50 L 112.25 414.81 L 108.00 415.11 L 108.00 393.06 ZM 128.71 414.38 C128.32,413.99 128.00,404.07 128.00,392.33 L 128.00 371.00 L 132.91 371.00 L 137.83 371.00 L 147.91 384.73 L 158.00 398.45 L 158.00 384.73 L 158.00 371.00 L 163.02 371.00 L 168.04 371.00 L 167.77 392.75 L 167.50 414.50 L 162.97 414.80 L 158.43 415.09 L 153.03 407.30 C150.07,403.01 145.58,396.85 143.07,393.61 L 138.50 387.73 L 138.00 401.11 L 137.50 414.50 L 133.46 414.80 C131.24,414.96 129.11,414.77 128.71,414.38 ZM 179.67 414.33 C179.30,413.97 179.00,404.07 179.00,392.33 L 179.00 371.00 L 191.03 371.00 C204.53,371.00 208.40,372.07 213.79,377.29 C217.82,381.19 220.50,389.48 219.58,395.22 C218.20,403.87 212.57,410.60 204.25,413.57 C200.39,414.95 180.89,415.55 179.67,414.33 ZM 203.81 403.97 C209.37,400.58 211.38,393.24 208.58,386.53 C206.69,382.01 202.52,380.00 195.05,380.00 L 189.00 380.00 L 189.00 393.00 L 189.00 406.00 L 194.75 406.00 C198.75,405.99 201.51,405.38 203.81,403.97 ZM 229.00 393.00 L 229.00 371.00 L 233.38 371.00 C237.08,371.00 237.86,371.35 238.37,373.25 C239.16,376.21 239.15,406.44 238.36,411.25 C237.75,414.92 237.64,415.00 233.37,415.00 L 229.00 415.00 L 229.00 393.00 ZM 245.66 414.25 C245.40,413.84 246.53,410.58 248.16,407.00 C249.79,403.42 253.86,393.86 257.19,385.75 L 263.25 371.00 L 267.95 371.00 C272.60,371.00 272.69,371.06 274.80,375.75 C283.51,395.07 290.86,413.54 290.13,414.27 C289.65,414.75 287.52,414.99 285.38,414.82 C281.91,414.53 281.30,414.06 279.62,410.34 C277.47,405.58 276.78,405.36 265.86,405.82 L 258.21 406.15 L 256.52 410.58 C254.88,414.87 254.71,415.00 250.48,415.00 C248.08,415.00 245.91,414.66 245.66,414.25 ZM 273.16 394.50 C272.68,391.66 268.88,383.00 268.13,383.02 C267.18,383.04 262.16,395.83 262.84,396.50 C263.16,396.83 265.69,396.96 268.46,396.79 C272.87,396.54 273.46,396.25 273.16,394.50 ZM 298.00 393.00 L 298.00 371.00 L 309.95 371.00 C317.09,371.00 322.96,371.48 324.53,372.19 C330.20,374.78 331.80,383.71 327.50,388.82 C324.63,392.23 324.43,393.00 326.43,393.00 C327.21,393.00 328.83,394.24 330.03,395.75 C331.79,397.98 332.11,399.43 331.73,403.44 C330.89,412.22 325.28,414.99 308.25,414.99 L 298.00 415.00 L 298.00 393.00 ZM 319.83 405.40 C321.54,404.21 322.04,403.02 321.81,400.65 L 321.50 397.50 L 314.25 397.21 L 307.00 396.91 L 307.00 401.96 L 307.00 407.00 L 312.28 407.00 C315.49,407.00 318.45,406.38 319.83,405.40 ZM 319.65 386.46 C322.79,382.17 320.60,379.74 313.08,379.20 L 307.00 378.76 L 307.00 384.00 L 307.00 389.25 L 312.65 388.78 C316.60,388.45 318.71,387.76 319.65,386.46 ZM 346.59 412.79 C340.34,409.12 338.50,405.88 338.50,398.50 C338.50,391.12 340.33,387.89 346.59,384.20 C349.87,382.27 351.52,381.97 356.87,382.34 C366.47,383.01 371.58,387.63 372.64,396.61 C373.38,402.89 371.25,407.95 366.24,411.77 C361.28,415.55 352.12,416.03 346.59,412.79 ZM 360.74 405.47 C363.70,403.40 364.60,398.06 362.63,394.24 C359.49,388.17 351.50,388.41 348.16,394.68 C346.37,398.05 346.76,400.56 349.59,403.92 C352.53,407.42 357.06,408.05 360.74,405.47 ZM 381.00 392.00 L 381.00 368.89 L 385.25 369.19 L 389.50 369.50 L 389.50 392.00 L 389.50 414.50 L 385.25 414.81 L 381.00 415.11 L 381.00 392.00 ZM 0.00 112.00 L 0.00 0.00 L 113.00 0.00 C175.15,0.00 226.00,0.17 226.00,0.38 C226.00,0.58 221.61,1.29 216.25,1.96 C173.73,7.21 132.07,24.03 97.65,49.86 C44.57,89.67 10.09,148.91 1.97,214.25 C1.30,219.61 0.58,224.00 0.38,224.00 C0.17,224.00 0.00,173.60 0.00,112.00 ZM 492.65 216.39 C491.76,205.88 487.71,186.47 483.53,172.68 C463.17,105.49 411.60,48.32 345.95,20.15 C324.69,11.03 300.78,4.59 278.50,1.98 C273.00,1.34 268.31,0.63 268.08,0.41 C267.85,0.18 318.59,-0.00 380.83,-0.00 L 494.00 0.00 L 494.00 112.00 C494.00,173.60 493.84,224.00 493.65,224.00 C493.45,224.00 493.00,220.58 492.65,216.39 ZM 287.67 133.86 C285.83,130.98 282.55,123.57 281.31,119.50 C280.47,116.74 280.07,116.52 276.20,116.69 C273.89,116.79 272.00,116.66 272.00,116.39 C272.00,115.31 279.15,113.00 282.49,113.00 C286.70,113.00 287.06,113.68 289.38,126.01 C291.05,134.85 290.36,138.04 287.67,133.86 ZM 228.25 128.78 C227.67,128.08 226.90,123.45 226.52,118.50 C226.15,113.55 224.98,104.18 223.92,97.67 C222.87,91.17 222.00,81.18 222.00,75.49 C222.00,63.59 222.86,64.51 210.74,63.44 C206.47,63.07 202.76,62.42 202.50,62.00 C202.24,61.59 203.80,60.08 205.95,58.65 C208.11,57.22 213.16,53.19 217.18,49.69 C226.61,41.49 247.30,25.00 248.17,25.00 C249.12,25.00 271.96,42.98 280.97,50.83 C285.08,54.40 289.95,58.22 291.79,59.31 C295.93,61.75 294.89,62.59 286.57,63.53 C277.58,64.55 274.42,66.14 273.65,70.01 C273.29,71.79 273.00,74.80 273.00,76.69 C273.00,83.86 272.68,84.00 255.92,84.00 C239.80,84.00 236.31,84.83 233.78,89.26 C232.92,90.76 232.34,97.72 232.00,110.42 C231.51,128.99 230.89,132.01 228.25,128.78 Z" fill="rgb(253,254,254)"/>
</g>
</svg>